<svg width="346" height="138" viewBox="0 0 346 138" fill="none" xmlns="http://www.w3.org/2000/svg">
<circle cx="179.45" cy="76.8374" r="60.2876" fill="#FFF1F0"/>
<circle cx="154.13" cy="50.3109" r="6.02876" fill="#FFC5C3"/>
<path d="M192.714 50.3109C192.714 53.6405 190.014 56.3397 186.685 56.3397C183.355 56.3397 180.656 53.6405 180.656 50.3109C180.656 46.9813 183.355 44.2822 186.685 44.2822C190.014 44.2822 192.714 46.9813 192.714 50.3109Z" fill="#FFC5C3"/>
<path d="M170.838 68.8105C163.029 68.8105 156.529 74.4094 155.131 81.8116C154.824 83.4397 156.196 84.7953 157.853 84.7953H183.823C185.48 84.7953 186.852 83.4397 186.545 81.8116C185.147 74.4094 178.646 68.8105 170.838 68.8105Z" fill="#FFC5C3"/>
<circle cx="170.408" cy="65.3838" r="62.5088" stroke="#FFC5C3" stroke-width="4"/>
<path d="M55.9139 130.106V101.779H0V83.2647C4.93721 75.1183 9.50413 66.725 13.7008 58.0849C17.8974 49.4448 21.7237 40.3727 25.1798 30.8685C28.6358 21.3644 31.5981 11.3666 34.0667 0.875H57.7654C56.1608 7.4168 54.1242 14.1437 51.6556 21.0558C49.187 27.9679 46.4715 34.6949 43.5092 41.2367C40.5468 47.7785 37.5845 53.8883 34.6222 59.5661C31.6599 65.1204 28.8827 69.9959 26.2906 74.1926C23.822 78.2658 21.8472 81.2898 20.366 83.2647H55.9139V51.2345C57.0248 48.8894 58.1356 46.4208 59.2465 43.8287C60.3574 41.1133 61.4065 38.3978 62.394 35.6823C63.5049 32.8434 64.4923 30.128 65.3563 27.5359C66.2203 24.8205 67.0226 22.2284 67.7632 19.7598H78.5016V83.2647H94.239V101.779H78.5016V130.106H55.9139Z" fill="#FFC5C3"/>
<path d="M307.675 130.106V101.779H251.761V83.2647C256.698 75.1183 261.265 66.725 265.462 58.0849C269.658 49.4448 273.485 40.3727 276.941 30.8685C280.397 21.3644 283.359 11.3666 285.828 0.875H309.526C307.922 7.4168 305.885 14.1437 303.417 21.0558C300.948 27.9679 298.232 34.6949 295.27 41.2367C292.308 47.7785 289.345 53.8883 286.383 59.5661C283.421 65.1204 280.644 69.9959 278.052 74.1926C275.583 78.2658 273.608 81.2898 272.127 83.2647H307.675V51.2345C308.786 48.8894 309.897 46.4208 311.008 43.8287C312.118 41.1133 313.168 38.3978 314.155 35.6823C315.266 32.8434 316.253 30.128 317.117 27.5359C317.981 24.8205 318.784 22.2284 319.524 19.7598H330.263V83.2647H346V101.779H330.263V130.106H307.675Z" fill="#FFC5C3"/>
</svg>
