<svg width="32" height="32" viewBox="0 0 32 32" fill="none" xmlns="http://www.w3.org/2000/svg">
<path d="M4.71321 15.2177C4.76088 14.6237 5.03055 14.0695 5.4685 13.6653C5.90645 13.2612 6.48055 13.0369 7.07647 13.037H21.3674C21.9633 13.0369 22.5375 13.2612 22.9754 13.6653C23.4134 14.0695 23.683 14.6237 23.7307 15.2177L24.6824 27.0696C24.7086 27.3957 24.6669 27.7238 24.5601 28.0331C24.4533 28.3423 24.2836 28.6261 24.0617 28.8666C23.8398 29.1071 23.5706 29.299 23.2709 29.4303C22.9712 29.5616 22.6475 29.6295 22.3203 29.6296H6.12358C5.79637 29.6295 5.47273 29.5616 5.17303 29.4303C4.87333 29.299 4.60407 29.1071 4.38218 28.8666C4.1603 28.6261 3.9906 28.3423 3.88378 28.0331C3.77696 27.7238 3.73533 27.3957 3.7615 27.0696L4.71321 15.2177V15.2177Z" stroke="#292929" stroke-width="2" stroke-linecap="round" stroke-linejoin="round"/>
<path d="M18.9629 16.5926V10.6666C18.9629 9.40932 18.4635 8.2035 17.5744 7.31443C16.6853 6.42537 15.4795 5.9259 14.2222 5.9259C12.9649 5.9259 11.759 6.42537 10.87 7.31443C9.98091 8.2035 9.48145 9.40932 9.48145 10.6666V16.5926" stroke="#292929" stroke-width="2" stroke-linecap="round" stroke-linejoin="round"/>
<path fill-rule="evenodd" clip-rule="evenodd" d="M32.0003 5.92593C32.0003 9.19872 29.3472 11.8519 26.0744 11.8519C22.8016 11.8519 20.1484 9.19872 20.1484 5.92593C20.1484 2.65313 22.8016 0 26.0744 0C29.3472 0 32.0003 2.65313 32.0003 5.92593ZM26.9633 8.59259C26.9633 9.08148 26.5633 9.48148 26.0744 9.48148C25.5855 9.48148 25.1855 9.08148 25.1855 8.59259V6.81482H23.4077C22.9188 6.81482 22.5188 6.41481 22.5188 5.92593C22.5188 5.43704 22.9188 5.03704 23.4077 5.03704H25.1855V3.25926C25.1855 2.77037 25.5855 2.37037 26.0744 2.37037C26.5633 2.37037 26.9633 2.77037 26.9633 3.25926V5.03704H28.741C29.2299 5.03704 29.6299 5.43704 29.6299 5.92593C29.6299 6.41481 29.2299 6.81482 28.741 6.81482H26.9633V8.59259Z" fill="#DC3A35"/>
</svg>
