<svg width="16" height="16" viewBox="0 0 16 16" fill="none" xmlns="http://www.w3.org/2000/svg">
<path d="M12.666 7.33329H8.66602V3.33329C8.66602 3.15648 8.59578 2.98691 8.47075 2.86189C8.34573 2.73686 8.17616 2.66663 7.99935 2.66663C7.82254 2.66663 7.65297 2.73686 7.52794 2.86189C7.40292 2.98691 7.33268 3.15648 7.33268 3.33329V7.33329H3.33268C3.15587 7.33329 2.9863 7.40353 2.86128 7.52855C2.73625 7.65358 2.66602 7.82315 2.66602 7.99996C2.66602 8.17677 2.73625 8.34634 2.86128 8.47136C2.9863 8.59639 3.15587 8.66663 3.33268 8.66663H7.33268V12.6666C7.33268 12.8434 7.40292 13.013 7.52794 13.138C7.65297 13.2631 7.82254 13.3333 7.99935 13.3333C8.17616 13.3333 8.34573 13.2631 8.47075 13.138C8.59578 13.013 8.66602 12.8434 8.66602 12.6666V8.66663H12.666C12.8428 8.66663 13.0124 8.59639 13.1374 8.47136C13.2624 8.34634 13.3327 8.17677 13.3327 7.99996C13.3327 7.82315 13.2624 7.65358 13.1374 7.52855C13.0124 7.40353 12.8428 7.33329 12.666 7.33329Z" fill="#DC3A35"/>
</svg>
