<svg width="16" height="16" viewBox="0 0 16 16" fill="none" xmlns="http://www.w3.org/2000/svg">
<path d="M3.14598 5.646C3.19242 5.59944 3.2476 5.56249 3.30834 5.53729C3.36909 5.51208 3.43421 5.49911 3.49998 5.49911C3.56575 5.49911 3.63087 5.51208 3.69161 5.53729C3.75236 5.56249 3.80753 5.59944 3.85398 5.646L7.99998 9.793L12.146 5.646C12.2399 5.55211 12.3672 5.49937 12.5 5.49937C12.6328 5.49937 12.7601 5.55211 12.854 5.646C12.9479 5.73989 13.0006 5.86723 13.0006 6C13.0006 6.13278 12.9479 6.26011 12.854 6.354L8.35398 10.854C8.30753 10.9006 8.25236 10.9375 8.19161 10.9627C8.13087 10.9879 8.06575 11.0009 7.99998 11.0009C7.93421 11.0009 7.86909 10.9879 7.80834 10.9627C7.7476 10.9375 7.69242 10.9006 7.64598 10.854L3.14598 6.354C3.09941 6.30756 3.06247 6.25238 3.03727 6.19163C3.01206 6.13089 2.99908 6.06577 2.99908 6C2.99908 5.93423 3.01206 5.86911 3.03727 5.80837C3.06247 5.74762 3.09941 5.69245 3.14598 5.646Z" fill="#292929"/>
</svg>
