<svg width="17" height="16" viewBox="0 0 17 16" fill="none" xmlns="http://www.w3.org/2000/svg">
<g clip-path="url(#clip0_59_282)">
<mask id="mask0_59_282" style="mask-type:alpha" maskUnits="userSpaceOnUse" x="0" y="0" width="17" height="17">
<path d="M0.569824 16.001L0.569824 0.000976562L16.5698 0.000977262L16.5698 16.001L0.569824 16.001Z" fill="#EE4D2D"/>
</mask>
<g mask="url(#mask0_59_282)">
<path fill-rule="evenodd" clip-rule="evenodd" d="M4.21622 7.22864C4.41152 7.42391 4.72812 7.42391 4.92342 7.22864L8.06982 4.08222L8.06982 12.8751C8.06982 13.1512 8.29368 13.3751 8.56982 13.3751C8.84596 13.3751 9.06982 13.1512 9.06982 12.8751L9.06982 4.08221L12.2163 7.22864C12.4115 7.42391 12.7281 7.42391 12.9234 7.22864C13.1186 7.03338 13.1186 6.7168 12.9234 6.52154L8.92337 2.52156C8.72812 2.32628 8.41152 2.32628 8.21627 2.52156L4.21622 6.52154C4.02102 6.7168 4.02102 7.03338 4.21622 7.22864ZM8.56982 2.87506L9.06982 2.87506L9.06982 4.08221L8.56983 3.58221L8.92337 3.22866L8.56982 2.87506Z" fill="#DC3A35"/>
<path d="M8.56982 2.87506L8.92337 3.22866L8.56983 3.58221L9.06982 4.08221L9.06982 2.87506L8.56982 2.87506Z" fill="#DC3A35"/>
</g>
</g>
<defs>
<clipPath id="clip0_59_282">
<rect width="16" height="16" fill="white" transform="translate(0.569824)"/>
</clipPath>
</defs>
</svg>
