<svg width="16" height="16" viewBox="0 0 16 16" fill="none" xmlns="http://www.w3.org/2000/svg">
<path d="M0 8C0 3.58172 3.58172 0 8 0C12.4183 0 16 3.58172 16 8C16 12.4183 12.4183 16 8 16C3.58172 16 0 12.4183 0 8Z" fill="white"/>
<path fill-rule="evenodd" clip-rule="evenodd" d="M8.43474 4.90011C8.27852 4.74387 8.27852 4.49059 8.43474 4.33435C8.59095 4.17819 8.84421 4.17819 9.00042 4.33435L8.43474 4.90011ZM10.9519 7.41723L3.91758 7.41723C3.69667 7.41723 3.51758 7.59632 3.51758 7.81723C3.51758 8.03815 3.69667 8.21723 3.91758 8.21723L10.9519 8.21723L8.43474 10.7344C8.27852 10.8906 8.27852 11.1439 8.43474 11.3001C8.59095 11.4563 8.84421 11.4563 9.00042 11.3001L12.2004 8.10007C12.3566 7.94387 12.3566 7.6906 12.2004 7.53439L11.9176 7.81723L11.6347 7.53439L11.3519 7.81724L10.9519 7.41723Z" fill="#DC3A35"/>
<path d="M11.9176 7.81723L11.9176 7.41723L10.9519 7.41723L11.3519 7.81724L11.6347 7.53439L11.9176 7.81723Z" fill="#DC3A35"/>
<path d="M9.00042 4.33435L8.43474 4.90011L10.9519 7.41723L11.9176 7.41723L11.9176 7.81723L12.2004 7.53439L9.00042 4.33435Z" fill="#DC3A35"/>
</svg>
