<svg width="25" height="24" viewBox="0 0 25 24" fill="none" xmlns="http://www.w3.org/2000/svg">
<path d="M10.625 3H4.625C4.35978 3 4.10543 3.10536 3.91789 3.29289C3.73036 3.48043 3.625 3.73478 3.625 4V10C3.625 10.2652 3.73036 10.5196 3.91789 10.7071C4.10543 10.8946 4.35978 11 4.625 11H10.625C10.8902 11 11.1446 10.8946 11.3321 10.7071C11.5196 10.5196 11.625 10.2652 11.625 10V4C11.625 3.73478 11.5196 3.48043 11.3321 3.29289C11.1446 3.10536 10.8902 3 10.625 3ZM9.625 9H5.625V5H9.625V9ZM20.625 3H14.625C14.3598 3 14.1054 3.10536 13.9179 3.29289C13.7304 3.48043 13.625 3.73478 13.625 4V10C13.625 10.2652 13.7304 10.5196 13.9179 10.7071C14.1054 10.8946 14.3598 11 14.625 11H20.625C20.8902 11 21.1446 10.8946 21.3321 10.7071C21.5196 10.5196 21.625 10.2652 21.625 10V4C21.625 3.73478 21.5196 3.48043 21.3321 3.29289C21.1446 3.10536 20.8902 3 20.625 3ZM19.625 9H15.625V5H19.625V9ZM10.625 13H4.625C4.35978 13 4.10543 13.1054 3.91789 13.2929C3.73036 13.4804 3.625 13.7348 3.625 14V20C3.625 20.2652 3.73036 20.5196 3.91789 20.7071C4.10543 20.8946 4.35978 21 4.625 21H10.625C10.8902 21 11.1446 20.8946 11.3321 20.7071C11.5196 20.5196 11.625 20.2652 11.625 20V14C11.625 13.7348 11.5196 13.4804 11.3321 13.2929C11.1446 13.1054 10.8902 13 10.625 13ZM9.625 19H5.625V15H9.625V19ZM17.625 13C15.419 13 13.625 14.794 13.625 17C13.625 19.206 15.419 21 17.625 21C19.831 21 21.625 19.206 21.625 17C21.625 14.794 19.831 13 17.625 13ZM17.625 19C16.522 19 15.625 18.103 15.625 17C15.625 15.897 16.522 15 17.625 15C18.728 15 19.625 15.897 19.625 17C19.625 18.103 18.728 19 17.625 19Z" fill="black"/>
</svg>
