<svg width="32" height="22" viewBox="0 0 32 22" fill="none" xmlns="http://www.w3.org/2000/svg">
<rect y="0.0908203" width="23.4464" height="18.7229" rx="2" fill="#DC3A35"/>
<rect x="2.26172" y="1.89685" width="18.9217" height="9.62914" rx="2" fill="white"/>
<path d="M28.3059 6.76025H23.7715C22.6669 6.76025 21.7715 7.65568 21.7715 8.76025V16.814C21.7715 17.9185 22.6669 18.814 23.7715 18.814H30.0001C31.1047 18.814 32.0001 17.9185 32.0001 16.814V12.2124C32.0001 11.9069 31.9301 11.6055 31.7955 11.3313L30.1013 7.87911C29.7652 7.19425 29.0688 6.76025 28.3059 6.76025Z" fill="#DC3A35"/>
<ellipse cx="8.70855" cy="18.383" rx="3.55425" ry="3.52615" fill="#E95056"/>
<ellipse cx="23.6753" cy="18.383" rx="3.55425" ry="3.52615" fill="#E95056"/>
<ellipse rx="1.97212" ry="1.95652" transform="matrix(-1 0 0 1 8.70952 18.3825)" fill="white"/>
<ellipse rx="1.97212" ry="1.95652" transform="matrix(-1 0 0 1 23.6753 18.3825)" fill="white"/>
<path d="M6.3168 9.45164C5.73155 9.45164 5.23101 9.33705 4.81518 9.10786C4.39935 8.87866 4.07849 8.5578 3.85261 8.14525C3.63186 7.72762 3.52148 7.23613 3.52148 6.67079C3.52148 6.24806 3.58309 5.86862 3.7063 5.53248C3.83464 5.19124 4.01946 4.90093 4.26074 4.66155C4.50203 4.41708 4.79465 4.22864 5.13861 4.09621C5.4877 3.96379 5.88043 3.89758 6.3168 3.89758C6.57348 3.89758 6.83274 3.93069 7.09456 3.9969C7.36151 4.05802 7.59253 4.14715 7.78761 4.26429C7.91595 4.33559 8.00323 4.42472 8.04943 4.53168C8.09563 4.63863 8.10847 4.74559 8.08793 4.85254C8.07253 4.9595 8.02889 5.05118 7.95702 5.12757C7.89028 5.20397 7.80558 5.25236 7.7029 5.27273C7.60023 5.2931 7.48472 5.27018 7.35638 5.20397C7.20236 5.11229 7.04065 5.04608 6.87124 5.00534C6.70183 4.96459 6.52985 4.94422 6.3553 4.94422C6.01134 4.94422 5.72129 5.01298 5.48513 5.15049C5.25412 5.28291 5.07957 5.47645 4.96149 5.73111C4.84342 5.98577 4.78438 6.29899 4.78438 6.67079C4.78438 7.0375 4.84342 7.35073 4.96149 7.61048C5.07957 7.87022 5.25412 8.06886 5.48513 8.20637C5.72129 8.33879 6.01134 8.405 6.3553 8.405C6.51958 8.405 6.68642 8.38463 6.85584 8.34389C7.03038 8.30314 7.19723 8.23948 7.35638 8.15289C7.48985 8.08668 7.60793 8.06376 7.7106 8.08414C7.81841 8.09942 7.90568 8.14525 7.97242 8.22165C8.0443 8.29295 8.08793 8.37954 8.10333 8.4814C8.12387 8.58326 8.1136 8.68513 8.07253 8.78699C8.03146 8.88885 7.95445 8.97543 7.84151 9.04674C7.65157 9.17407 7.41798 9.27338 7.14076 9.34469C6.86354 9.41599 6.58888 9.45164 6.3168 9.45164Z" fill="#DC3A35"/>
<path d="M11.2774 9.45164C10.7435 9.45164 10.2737 9.33705 9.86815 9.10786C9.46772 8.87357 9.15456 8.54761 8.92868 8.12997C8.70793 7.71234 8.59755 7.22594 8.59755 6.67079C8.59755 6.24806 8.65916 5.86862 8.78237 5.53248C8.91071 5.19124 9.09296 4.90093 9.32911 4.66155C9.56526 4.41708 9.84762 4.22864 10.1762 4.09621C10.5099 3.96379 10.8769 3.89758 11.2774 3.89758C11.8215 3.89758 12.2938 4.01218 12.6943 4.24137C13.0947 4.47056 13.4053 4.79397 13.626 5.21161C13.8519 5.62415 13.9649 6.108 13.9649 6.66315C13.9649 7.08588 13.9007 7.46787 13.7723 7.80911C13.644 8.15035 13.4618 8.4432 13.2256 8.68767C12.9895 8.93214 12.7071 9.12059 12.3785 9.25301C12.05 9.38543 11.6829 9.45164 11.2774 9.45164ZM11.2774 8.4432C11.5802 8.4432 11.8369 8.37444 12.0474 8.23693C12.263 8.09432 12.4273 7.8906 12.5403 7.62575C12.6583 7.35582 12.7174 7.0375 12.7174 6.67079C12.7174 6.11055 12.5916 5.67763 12.34 5.37204C12.0885 5.06136 11.7343 4.90602 11.2774 4.90602C10.9796 4.90602 10.7229 4.97478 10.5073 5.11229C10.2917 5.24981 10.1274 5.45099 10.0145 5.71583C9.90152 5.98067 9.84505 6.29899 9.84505 6.67079C9.84505 7.22594 9.97082 7.66141 10.2224 7.97718C10.4739 8.28786 10.8256 8.4432 11.2774 8.4432Z" fill="#DC3A35"/>
<path d="M15.5119 9.36761C15.3117 9.36761 15.1577 9.31413 15.0499 9.20717C14.9421 9.10022 14.8882 8.94742 14.8882 8.74879V4.60044C14.8882 4.4018 14.9421 4.24901 15.0499 4.14205C15.1577 4.0351 15.3117 3.98162 15.5119 3.98162H17.0135C17.9427 3.98162 18.6589 4.2159 19.162 4.68447C19.6702 5.14795 19.9243 5.81005 19.9243 6.67079C19.9243 7.10371 19.8576 7.48824 19.7241 7.82439C19.5958 8.15544 19.4084 8.43556 19.162 8.66475C18.9156 8.89394 18.6127 9.06966 18.2533 9.19189C17.8939 9.30903 17.4807 9.36761 17.0135 9.36761H15.5119ZM16.0817 8.39736H16.9442C17.2368 8.39736 17.4909 8.36171 17.7066 8.29041C17.9222 8.2191 18.1019 8.11215 18.2456 7.96954C18.3893 7.82693 18.4972 7.64867 18.569 7.43476C18.6409 7.21576 18.6768 6.9611 18.6768 6.67079C18.6768 6.09018 18.5305 5.65981 18.2379 5.37968C17.9504 5.09447 17.5192 4.95186 16.9442 4.95186H16.0817V8.39736Z" fill="#DC3A35"/>
<path d="M27.9175 8.23315H23.8938C23.7281 8.23315 23.5938 8.36747 23.5938 8.53315V11.2256C23.5938 11.3912 23.7281 11.5256 23.8938 11.5256H30.178C30.3253 11.5256 30.4221 11.372 30.3582 11.2393C29.9813 10.4565 29.371 9.19554 29.1472 8.75801C28.8933 8.26176 28.2654 8.23302 27.9175 8.23315Z" fill="white"/>
<rect x="27.2295" y="12.7872" width="3.26564" height="1.10113" rx="0.550567" fill="white"/>
</svg>
