<svg width="24" height="21" viewBox="0 0 24 21" fill="none" xmlns="http://www.w3.org/2000/svg">
<path d="M14.3937 3.56907H11.9874C11.6283 3.56907 11.3372 3.86019 11.3372 4.21931C11.3372 4.57843 11.6283 4.86955 11.9874 4.86955H13.0838L15.5907 10.5584C15.9331 11.3354 15.856 12.2333 15.386 12.9405C15.078 13.404 14.6584 13.7826 14.1659 14.0415L13.2507 14.5227C12.8542 14.7311 12.4131 14.84 11.9652 14.84H11.3207L10.8841 10.9385C12.2814 9.20451 11.4663 8.02378 10.8841 8.02378H2.71444C2.16216 8.02378 1.71444 8.47149 1.71444 9.02378V10.505L0.210011 13.973C-0.488629 16.4005 0.695594 16.6747 1.71444 16.6747H15.3394C15.8075 16.6747 16.2044 16.3458 16.3582 15.9036C17.226 13.4089 19.2356 12.7105 21.2271 13.106C22.9305 13.4442 23.0391 14.3101 23.4919 14.0569C23.871 13.8449 23.8447 13.2848 23.5416 12.9738C22.0785 11.4727 19.8073 11.5456 18.7602 11.8055L15.7037 4.86955C17.4503 5.21635 17.8869 4.72506 17.8869 4.43606V2.83508C17.8869 2.2828 17.4394 1.83508 16.8872 1.83508H15.7037C14.6557 1.83508 14.3937 2.99107 14.3937 3.56907Z" fill="#454DE0"/>
<circle cx="20.5395" cy="17.5398" r="2.46036" stroke="#454DE0" stroke-width="2"/>
<rect x="0.642578" y="0.237976" width="6.92072" height="6.92072" rx="1" fill="#454DE0"/>
<path fill-rule="evenodd" clip-rule="evenodd" d="M1.50781 17.5397C1.50781 17.5398 1.50781 17.5398 1.50781 17.5398C1.50781 19.4509 3.05707 21.0001 4.96817 21.0001C6.87928 21.0001 8.42854 19.4509 8.42854 17.5398C8.42854 17.5398 8.42854 17.5398 8.42854 17.5397H6.42854C6.42854 17.5398 6.42854 17.5398 6.42854 17.5398C6.42854 18.3463 5.77471 19.0001 4.96817 19.0001C4.16164 19.0001 3.50781 18.3463 3.50781 17.5398C3.50781 17.5398 3.50781 17.5398 3.50781 17.5397H1.50781Z" fill="#454DE0"/>
</svg>
