<svg width="119" height="20" viewBox="0 0 119 20" fill="none" xmlns="http://www.w3.org/2000/svg">
<g clip-path="url(#clip0_497_4194)">
<path fill-rule="evenodd" clip-rule="evenodd" d="M111.203 16.458V3.43967H114.6V13.5382H118.54V16.458H111.203ZM105.419 14.5774H100.802L100.1 16.458H96.4495L101.785 3.43967H104.463L109.754 16.458H106.068L105.419 14.5774ZM103.154 7.49245H103.102L101.733 11.9409H104.524L103.154 7.49245ZM88.006 3.43967H95.3962V6.35906H91.2625V8.38628H95.2645V11.3053H91.2625V13.5382H95.3962V16.458H88.006V3.43967ZM79.1421 16.458H74.4909V3.43967H78.8964C79.5519 3.43967 80.1252 3.47147 80.6167 3.53384C81.19 3.60819 81.708 3.7288 82.1697 3.89484C83.2052 4.2608 84.0718 4.9196 84.7678 5.87002C85.5868 6.98069 85.9962 8.32845 85.9962 9.91454C85.9962 14.2771 83.7116 16.458 79.1421 16.458ZM82.5997 9.96617C82.5997 8.87284 82.3424 8.01371 81.8281 7.38961C81.266 6.70313 80.4436 6.35906 79.3615 6.35906H77.8873V13.5382H79.3441C80.4552 13.5382 81.2858 13.2061 81.836 12.5423C82.3449 11.9351 82.5997 11.0768 82.5997 9.96617ZM63.8971 11.2545H59.5432V16.458H56.1472V3.43967H59.5432V8.33423H63.8971V3.43967H67.2936V16.458H63.8971V11.2545ZM50.0209 8.36852L51.4253 8.98684C51.9168 9.20452 52.3261 9.41352 52.6537 9.61426C53.0518 9.85465 53.3794 10.1091 53.6367 10.3784C54.234 10.9963 54.5322 11.7749 54.5322 12.7137C54.5322 14.019 54.0877 15.0235 53.198 15.7277C52.379 16.3811 51.2786 16.7075 49.8978 16.7075C48.4881 16.7075 47.3527 16.3634 46.4931 15.6769C45.5625 14.9442 45.0974 13.907 45.0974 12.5683V12.1475H48.4761C48.4761 12.6278 48.5848 13.0314 48.8008 13.3585C49.0474 13.7356 49.4005 13.9252 49.8631 13.9252C50.7235 13.9252 51.1531 13.5097 51.1531 12.6799C51.1531 12.3019 51.004 11.9959 50.7053 11.7613C50.5884 11.6687 50.4364 11.5775 50.2493 11.4858L49.9945 11.366L48.5468 10.7555C48.0668 10.5614 47.6538 10.3639 47.3089 10.1632C46.8991 9.929 46.5542 9.67415 46.273 9.39865C45.6237 8.75224 45.299 7.96208 45.299 7.02943C45.299 5.87828 45.7905 4.93654 46.7736 4.20421C47.6744 3.53384 48.7335 3.19928 49.9507 3.19928C50.6359 3.19928 51.2902 3.31906 51.9168 3.55987C52.5958 3.82297 53.1394 4.19513 53.5491 4.67632C54.0993 5.3405 54.3922 6.19632 54.4268 7.2438H51.0651C50.937 6.39623 50.5298 5.97287 49.8454 5.97287C49.0672 5.97287 48.6781 6.31363 48.6781 6.99432C48.6781 7.23513 48.719 7.41852 48.8008 7.54408C48.9354 7.76754 49.3427 8.04221 50.0209 8.36852ZM40.4722 14.5774H35.8556L35.1538 16.458H24.2003V3.43967H27.5976V13.5382H31.5376V16.3729L36.8386 3.43967H39.516L44.8079 16.458H41.1219L40.4722 14.5774ZM38.2079 7.49245H38.1554L36.7862 11.9409H39.5771L38.2079 7.49245ZM18.276 8.57463H22.1376V11.4948H18.276V16.458H15.0196V3.43967H22.2784V6.35906H18.276V8.57463ZM8.87889 8.91828L2.68696 19.0981L2.97981 11.6336L-0.00195312 11.7418L2.36355 0.508301L9.00033 0.884583L5.48574 8.79519L8.87889 8.91828Z" fill="white"/>
</g>
<defs>
<clipPath id="clip0_497_4194">
<rect width="118.543" height="19" fill="white" transform="translate(0 0.5)"/>
</clipPath>
</defs>
</svg>
