<svg width="40" height="41" viewBox="0 0 40 41" fill="none" xmlns="http://www.w3.org/2000/svg">
<path d="M38.9093 25.0684C38.9093 26.7281 38.625 28.3561 38.0642 29.9049C37.5228 31.4025 36.7429 32.7928 35.7332 34.0378C33.7358 36.504 30.9479 38.2597 27.8835 38.9782C27.8518 38.9817 27.8254 38.9896 27.7946 38.9967C27.7559 39.0046 27.7251 39.0125 27.6987 39.016C26.9381 39.1816 26.1705 39.289 25.3984 39.3268C25.394 39.3312 25.3861 39.3312 25.3791 39.3312H25.321C25.0983 39.3427 24.8641 39.3506 24.6255 39.3506H15.3701C15.1324 39.3506 14.8982 39.3427 14.679 39.3312C14.6288 39.3312 14.5831 39.3268 14.5329 39.3233H14.51C13.7653 39.281 13.0276 39.1771 12.3057 39.0204L12.1138 38.9782C12.0865 38.9702 12.0557 38.9623 12.0293 38.9544C8.98347 38.2254 6.21845 36.4653 4.23689 34.0026C3.23775 32.7585 2.45868 31.3761 1.92434 29.8855C1.37151 28.3411 1.08717 26.7202 1.08717 25.0684V15.8067C1.08717 15.7142 1.0907 15.6262 1.0907 15.5337C1.10302 14.9579 1.14879 14.3777 1.2289 13.8054C1.27556 13.4866 1.32573 13.1758 1.39088 12.8721C1.40584 12.8069 1.41729 12.7382 1.43313 12.6766C2.13561 9.56148 3.89445 6.73339 6.39099 4.70918C7.63573 3.69839 9.02573 2.91124 10.5275 2.36975C12.0751 1.80889 13.7072 1.52449 15.3701 1.52449H24.6255C26.2849 1.52449 27.9099 1.80889 29.4575 2.36623C30.9514 2.9042 32.3414 3.68782 33.5826 4.6898C36.0747 6.69905 37.838 9.51481 38.5484 12.6106C38.5634 12.6766 38.5792 12.7453 38.5906 12.8104C38.6628 13.1371 38.7209 13.4717 38.7667 13.8018C38.8433 14.3477 38.8899 14.9042 38.9014 15.4651C38.9093 15.5654 38.9093 15.6685 38.9093 15.7873V25.0684ZM39.8459 13.6522C39.7922 13.2788 39.7315 12.9258 39.6584 12.5956C39.6426 12.519 39.6276 12.438 39.6083 12.3693C38.8433 9.03055 36.9462 6.00348 34.2657 3.84543C32.9294 2.76157 31.4356 1.92071 29.8264 1.34048C28.1555 0.740871 26.4082 0.437988 24.6255 0.437988H15.3701C13.5769 0.437988 11.826 0.740871 10.1587 1.344C8.54596 1.92775 7.04769 2.77301 5.70787 3.86392C3.02295 6.03869 1.12943 9.08426 0.37677 12.4116C0.365326 12.4618 0.353881 12.5111 0.342437 12.5648L0.326594 12.6414C0.250007 13.0068 0.192788 13.3713 0.149653 13.6522C0.065144 14.2659 0.0158464 14.8928 0.00440245 15.5337L0 15.8067V25.0684C0 26.839 0.303704 28.5833 0.898787 30.2544C1.47098 31.8481 2.30815 33.3387 3.3874 34.6867C5.51949 37.3334 8.49138 39.2238 11.7599 40.011L11.8489 40.0347L12.0751 40.084C12.8665 40.2566 13.6649 40.3649 14.4484 40.4107H14.4871C14.5408 40.4151 14.591 40.4186 14.6447 40.4186C14.8744 40.4336 15.1209 40.438 15.3701 40.438H24.6255C24.8755 40.438 25.1176 40.4336 25.3483 40.4186H25.8509L25.8782 40.3878C26.5464 40.3341 27.226 40.2337 27.9055 40.084C27.9364 40.0805 28.0552 40.0532 28.0552 40.0532L28.0746 40.0497L28.1318 40.0374C31.4312 39.2661 34.4312 37.3757 36.5774 34.7255C37.6566 33.3959 38.5017 31.8983 39.0898 30.2773C39.6928 28.6097 40 26.8584 40 25.0684V15.7873C40 15.6535 39.9956 15.5302 39.9886 15.4149C39.9771 14.8311 39.9269 14.2359 39.8459 13.6522Z" fill="#C12227"/>
<path d="M19.9565 31.6949L2.72368 17.2322L2.32843 16.902V25.0684C2.32843 30.9148 6.27218 36.0893 11.922 37.6486C11.9572 37.6566 11.9915 37.668 12.0293 37.675V28.2804L14.51 30.3653V38.0827C14.5373 38.0827 14.5646 38.0862 14.591 38.0906H14.6333C14.8674 38.1056 15.106 38.1135 15.371 38.1135H18.7161V33.8916L19.9565 34.9368L21.1933 33.8916V38.1135H24.6265C24.8914 38.1135 25.1335 38.1056 25.3677 38.0906H25.3985V30.3653L27.8836 28.2804V37.6988L27.9874 37.6715C30.7023 36.9416 33.1645 35.3092 34.9119 33.0666C36.7165 30.7536 37.669 27.9881 37.669 25.0684V16.8245L37.2737 17.1591L19.9565 31.6949Z" fill="#C12227"/>
<path d="M17.057 10.7095C17.042 10.7095 17.0305 10.7095 17.0225 10.702C17.0101 10.702 17.0026 10.6995 16.9918 10.6995C16.9719 10.6945 16.9532 10.6945 16.9302 10.692C16.9302 10.692 16.9227 10.692 16.9177 10.687C16.9052 10.682 16.8953 10.682 16.8798 10.682C16.8598 10.6795 16.8411 10.6745 16.8182 10.6745C16.8032 10.6745 16.791 10.672 16.7795 10.672C16.757 10.672 16.7373 10.672 16.7178 10.667H16.7154C16.6809 10.6645 16.6457 10.6646 16.6115 10.6646C16.4653 10.6646 16.3237 10.6795 16.189 10.7102C16.0166 10.7447 15.8545 10.7991 15.7013 10.8715V10.874C15.6706 10.8864 15.6397 10.9012 15.609 10.9161C15.5783 10.9361 15.5519 10.9513 15.5209 10.9663V10.9688C15.5084 10.9738 15.501 10.9813 15.4902 10.9888C15.4401 11.0205 15.3941 11.0504 15.3485 11.0856C15.3335 11.0956 15.3178 11.1121 15.3028 11.1235C15.2878 11.136 15.2711 11.146 15.2561 11.158C15.2437 11.1705 15.229 11.1852 15.214 11.1932C15.2065 11.2032 15.1915 11.2156 15.1795 11.2276C15.1596 11.2426 15.1409 11.2621 15.1259 11.2813C15.0792 11.3269 15.0336 11.3771 14.9911 11.4275C14.9712 11.45 14.9525 11.4697 14.9375 11.4927L14.8873 11.5623C14.8749 11.5798 14.8609 11.6002 14.8487 11.6195C14.8362 11.6419 14.8262 11.6581 14.8142 11.6731C14.7992 11.7038 14.7798 11.7348 14.7648 11.7655C14.7498 11.7919 14.7331 11.8261 14.7182 11.8536C14.7032 11.8808 14.6917 11.9072 14.6795 11.9347C14.6795 11.9372 14.677 11.9422 14.677 11.9472C14.662 11.9771 14.6505 12.0123 14.6391 12.043C14.6391 12.0455 14.6341 12.0505 14.6341 12.0555C14.6216 12.0862 14.6116 12.1126 14.6034 12.1436C14.5909 12.1788 14.5859 12.2087 14.5769 12.2439C14.5694 12.2704 14.5644 12.2976 14.557 12.3285C14.552 12.341 14.5495 12.355 14.5495 12.3707C14.542 12.3979 14.537 12.4279 14.5345 12.4553L14.5245 12.5354C14.5195 12.5479 14.5195 12.5554 14.5195 12.5661C14.517 12.5968 14.517 12.6278 14.517 12.6585C14.5145 12.6964 14.5145 12.7316 14.5145 12.7695V23.8864L19.96 28.4542L25.4021 23.8828V12.7695C25.4021 11.6099 24.461 10.6652 23.3008 10.6652C23.1935 10.6652 23.0859 10.6752 22.9786 10.6924C22.9135 10.6999 22.8439 10.7149 22.7752 10.7338C22.5754 10.784 22.3835 10.8641 22.211 10.9717C22.1528 11.0069 22.0957 11.0448 22.041 11.0835C21.9881 11.1222 21.938 11.1681 21.8878 11.2103C21.8262 11.2684 21.7645 11.3291 21.7119 11.3907C21.6969 11.4107 21.6767 11.4294 21.6652 11.4524C21.6503 11.4674 21.6388 11.4831 21.6308 11.4946C21.6183 11.507 21.6108 11.517 21.6036 11.5253C21.5886 11.5477 21.5729 11.5709 21.5579 11.5904C21.5193 11.652 21.4848 11.7092 21.4506 11.7743C21.4357 11.8015 21.4199 11.828 21.4085 11.8555C21.3935 11.8862 21.3778 11.9171 21.3663 11.9478C21.3463 11.99 21.3319 12.0279 21.3196 12.0701C21.3122 12.0901 21.3047 12.1088 21.3022 12.1318C21.2872 12.1669 21.275 12.2049 21.267 12.2436C21.247 12.3087 21.2363 12.3783 21.2248 12.447C21.2223 12.4777 21.2173 12.5041 21.2123 12.5351C21.2098 12.5501 21.2098 12.5703 21.2098 12.5852C21.2048 12.6077 21.2023 12.6354 21.2023 12.6584C21.2023 12.6963 21.1999 12.7315 21.1999 12.7692V24.1713L19.963 25.2112L18.7227 24.1713V12.7692C18.7227 12.6229 18.7077 12.4813 18.676 12.343C18.6224 12.0701 18.5148 11.8165 18.3618 11.5937C18.2078 11.3711 18.0158 11.1755 17.7931 11.0258C17.7706 11.0059 17.7429 10.9906 17.7165 10.9757C17.7165 10.9757 17.7115 10.9707 17.709 10.9707V10.9682C17.6865 10.9557 17.6633 10.9417 17.6394 10.9303C17.6369 10.9303 17.6294 10.9228 17.6194 10.9178C17.6094 10.9153 17.597 10.9078 17.586 10.9003C17.5428 10.8803 17.5006 10.8616 17.4582 10.8422C17.4507 10.8397 17.4482 10.8347 17.4358 10.8297L17.3978 10.8172C17.3928 10.8097 17.3854 10.8097 17.3829 10.8047C17.3679 10.7997 17.3564 10.7972 17.3449 10.7922L17.3399 10.7872C17.3275 10.7872 17.325 10.7847 17.3175 10.7798C17.295 10.7723 17.2718 10.7648 17.2444 10.7573H17.2394C17.2129 10.7498 17.1822 10.7423 17.1558 10.7301H17.1433V10.7276C17.1161 10.7201 17.0897 10.7151 17.0622 10.7076" fill="#C12227"/>
<path d="M12.0297 21.7996V12.227C12.0332 12.1663 12.0376 12.1038 12.0411 12.0395C12.0447 11.9928 12.0491 11.947 12.0526 11.9004C12.0561 11.8546 12.064 11.8088 12.072 11.7621C12.0869 11.6433 12.1063 11.5244 12.1336 11.4047C12.1441 11.3624 12.1529 11.321 12.1635 11.2779C12.1943 11.1555 12.2251 11.0401 12.2674 10.9213C12.2797 10.8861 12.2911 10.8517 12.3061 10.8174C12.3404 10.7214 12.3792 10.629 12.417 10.54C12.4329 10.5066 12.4478 10.4714 12.4628 10.4414C12.4751 10.4097 12.491 10.3833 12.5059 10.3525C12.5368 10.2829 12.579 10.2143 12.6133 10.1491C12.6327 10.1148 12.6521 10.0831 12.6714 10.0531C12.7093 9.98358 12.7551 9.9149 12.8017 9.84534C12.8246 9.81101 12.8475 9.77579 12.8704 9.74233C12.9285 9.66485 12.9857 9.58825 13.0429 9.51517C13.0623 9.48787 13.0817 9.46938 13.101 9.44649C13.1274 9.41127 13.1547 9.38045 13.182 9.34964C13.2163 9.30737 13.2542 9.26951 13.2929 9.23077C13.3237 9.19643 13.3546 9.16562 13.3889 9.1348C13.4813 9.03883 13.5808 8.95078 13.6811 8.86626C13.7005 8.85393 13.7155 8.83896 13.7348 8.82399C13.7771 8.78877 13.8194 8.75444 13.8651 8.7201C13.9417 8.66287 14.0271 8.60475 14.1116 8.54752C14.1644 8.5123 14.219 8.48149 14.2762 8.44715C14.3026 8.43218 14.3299 8.41281 14.3607 8.39696C14.4065 8.37055 14.4532 8.34766 14.4989 8.32476C14.5491 8.29747 14.5993 8.27017 14.653 8.24728C14.6909 8.23231 14.7261 8.21294 14.7639 8.19709C14.8255 8.16716 14.8872 8.14427 14.9479 8.12049C14.9717 8.10905 14.9946 8.10112 15.0139 8.09408C15.0791 8.07119 15.1407 8.04741 15.2058 8.02804C15.2252 8.021 15.2437 8.01748 15.263 8.00955C15.3018 7.99811 15.3396 7.98666 15.3784 7.97433C15.4673 7.95144 15.5553 7.92855 15.6469 7.90918C15.6706 7.90566 15.6935 7.90125 15.7164 7.89421C15.8352 7.87132 15.955 7.85195 16.0738 7.8405C16.1081 7.83698 16.1425 7.83258 16.1777 7.82906C16.2736 7.81761 16.3731 7.81321 16.4691 7.80968H16.7534C16.8529 7.81321 16.9532 7.81761 17.0492 7.82906C17.08 7.83258 17.1108 7.83258 17.1416 7.83698C17.1909 7.84402 17.2411 7.85195 17.2948 7.85899C17.345 7.86692 17.3951 7.87484 17.4453 7.88276C17.4867 7.88981 17.5333 7.90125 17.5791 7.90918C17.6522 7.92503 17.7288 7.9444 17.8018 7.96377C17.837 7.97433 17.8705 7.98226 17.9057 7.9937C17.9321 8.00163 17.9559 8.00955 17.9823 8.01748C18.0131 8.02804 18.0439 8.03597 18.0747 8.04741C18.1821 8.08175 18.2895 8.1249 18.3978 8.16716C18.4436 8.19005 18.4973 8.21294 18.5466 8.23584C18.6047 8.26225 18.6584 8.28954 18.7165 8.31684C18.7737 8.34766 18.8309 8.37759 18.8855 8.41281C19.2262 8.60475 19.5422 8.84336 19.8186 9.11543C19.838 9.1348 19.8565 9.15417 19.8723 9.17266C19.9031 9.19996 19.926 9.22725 19.9568 9.25719C20.0448 9.16121 20.1373 9.06965 20.2332 8.98512C20.3248 8.90059 20.4172 8.82399 20.5132 8.75091C20.5713 8.70865 20.6285 8.66287 20.6936 8.61972C20.7473 8.58538 20.8019 8.54752 20.8547 8.51231C20.9665 8.44363 21.0783 8.37759 21.1928 8.31684C21.2315 8.29747 21.2702 8.2781 21.3125 8.25961C21.3539 8.24024 21.3926 8.22087 21.4348 8.2015C21.4771 8.18213 21.5158 8.16716 21.5581 8.15219C21.6003 8.13282 21.6426 8.11697 21.6848 8.10112C21.7271 8.08615 21.765 8.07119 21.8116 8.05534C21.8151 8.05182 21.8231 8.05182 21.831 8.04741C21.8574 8.03597 21.8882 8.02804 21.9146 8.021C21.9269 8.01748 21.9384 8.01307 21.9498 8.00955C21.9877 7.99811 22.0308 7.98666 22.0687 7.97433C22.1109 7.96377 22.1567 7.94792 22.2033 7.93999C22.2491 7.92855 22.2878 7.92062 22.3301 7.90918C22.3759 7.90125 22.4225 7.88981 22.4639 7.88276C22.5106 7.87484 22.5528 7.86692 22.5986 7.86339C22.6523 7.85195 22.706 7.84755 22.7562 7.8405C22.7905 7.83698 22.8292 7.83258 22.8636 7.82906C22.9639 7.81761 23.0599 7.81321 23.1558 7.80968H23.4358C23.5396 7.81321 23.64 7.81761 23.7351 7.82906C23.7659 7.83258 23.7967 7.83258 23.8275 7.83698C23.8777 7.84402 23.9279 7.85195 23.9815 7.85899C24.0308 7.86692 24.081 7.87484 24.1312 7.88276C24.177 7.88981 24.2192 7.90125 24.2624 7.90918C24.3081 7.92062 24.3504 7.92855 24.3882 7.93999C24.4384 7.94792 24.4807 7.96377 24.5309 7.97433C24.5617 7.98226 24.5916 7.9937 24.6233 8.00163C24.6339 8.00515 24.6497 8.00955 24.6611 8.01748C24.6955 8.02452 24.7307 8.03597 24.7615 8.04741C24.7765 8.05182 24.7914 8.05534 24.8038 8.05974C24.8416 8.07471 24.8759 8.08615 24.9147 8.10112C24.9957 8.13282 25.0802 8.16716 25.1603 8.2015C25.199 8.22087 25.2369 8.23584 25.2756 8.25521C25.3178 8.27458 25.3601 8.29747 25.3988 8.31684C25.449 8.34325 25.4904 8.36703 25.537 8.38992C25.5828 8.41633 25.6295 8.44363 25.6708 8.47004L25.6752 8.47356C25.7175 8.49734 25.7598 8.52375 25.802 8.55105C25.8636 8.58891 25.9209 8.63117 25.9781 8.67343C26.0098 8.6972 26.0397 8.7201 26.0705 8.74299C26.1092 8.77028 26.1436 8.7967 26.1779 8.82399C26.2166 8.85833 26.2589 8.89267 26.2976 8.92789C26.332 8.9587 26.3707 8.98864 26.405 9.02386C26.4429 9.0582 26.4816 9.09606 26.5195 9.13128C26.5511 9.16562 26.5855 9.19643 26.6163 9.23077L26.6277 9.24222L26.7307 9.35756C26.7659 9.3963 26.8003 9.43504 26.8346 9.4729C26.8505 9.4958 26.8654 9.51517 26.8813 9.53454C26.8962 9.5495 26.9112 9.56887 26.9235 9.58825C26.9578 9.63051 26.9922 9.67629 27.023 9.71856C27.0503 9.76082 27.0802 9.80308 27.111 9.84534C27.1383 9.88761 27.1656 9.92987 27.192 9.97565C27.2149 10.0144 27.2422 10.0567 27.2651 10.0954C27.2686 10.1068 27.2765 10.1104 27.28 10.1218C27.3038 10.1641 27.3267 10.2028 27.3496 10.2442L27.4182 10.3833C27.4649 10.4749 27.5072 10.5717 27.5459 10.6712C27.5644 10.7179 27.5837 10.7672 27.6031 10.8174H27.6075C27.6225 10.8632 27.6374 10.9134 27.6533 10.9591L27.6568 10.9671C27.6718 11.0173 27.6876 11.0674 27.7026 11.1168C27.7906 11.4205 27.8487 11.7348 27.8681 12.0659C27.876 12.1689 27.883 12.2807 27.883 12.3926V21.7996L37.1473 14.025L37.5003 13.7256C37.0206 10.7478 35.4994 8.00955 33.2062 5.99591C30.825 3.91094 27.7792 2.76192 24.6268 2.76192H15.3704C8.96889 2.76192 3.47229 7.48655 2.48547 13.7908L2.84288 14.0901L12.0297 21.7996Z" fill="#C12227"/>
</svg>
