<svg width="140" height="41" viewBox="0 0 140 41" fill="none" xmlns="http://www.w3.org/2000/svg">
<path d="M37.6387 24.8751C37.6387 26.4802 37.3637 28.0548 36.8212 29.5527C36.2975 31.0012 35.5431 32.3458 34.5663 33.5499C32.6341 35.9351 29.9373 37.6331 26.973 38.3279C26.9424 38.3313 26.9168 38.339 26.887 38.3458C26.8495 38.3535 26.8197 38.3611 26.7942 38.3645C26.0584 38.5246 25.3159 38.6285 24.5691 38.6651C24.5648 38.6694 24.5571 38.6694 24.5503 38.6694H24.4941C24.2787 38.6805 24.0522 38.6881 23.8214 38.6881H14.8682C14.6382 38.6881 14.4117 38.6805 14.1997 38.6694C14.1511 38.6694 14.1069 38.6651 14.0583 38.6617H14.0362C13.3158 38.6209 12.6022 38.5204 11.9039 38.3688L11.7183 38.3279C11.6919 38.3203 11.662 38.3126 11.6365 38.3049C8.69012 37.5999 6.01539 35.8976 4.09853 33.5158C3.13202 32.3125 2.37839 30.9756 1.8615 29.5339C1.32672 28.0403 1.05167 26.4726 1.05167 24.8751V15.9176C1.05167 15.8281 1.05508 15.743 1.05508 15.6536C1.067 15.0967 1.11128 14.5355 1.18877 13.982C1.2339 13.6737 1.28244 13.3731 1.34546 13.0793C1.35994 13.0163 1.37101 12.9499 1.38633 12.8903C2.06587 9.87748 3.76728 7.14228 6.18229 5.18456C7.38639 4.20697 8.731 3.44568 10.1837 2.92197C11.6808 2.37953 13.2596 2.10448 14.8682 2.10448H23.8214C25.4266 2.10448 26.9986 2.37954 28.4956 2.91857C29.9407 3.43887 31.2853 4.19675 32.486 5.16582C34.8967 7.10907 36.6024 9.83234 37.2896 12.8264C37.3041 12.8903 37.3194 12.9567 37.3305 13.0197C37.4003 13.3356 37.4565 13.6592 37.5008 13.9786C37.5749 14.5065 37.62 15.0447 37.6311 15.5872C37.6387 15.6842 37.6387 15.7839 37.6387 15.8988V24.8751ZM38.5448 13.8338C38.4928 13.4727 38.4341 13.1313 38.3634 12.8119C38.3481 12.7379 38.3336 12.6595 38.3149 12.5931C37.5749 9.36399 35.7398 6.43634 33.1468 4.34918C31.8541 3.30092 30.409 2.48768 28.8524 1.92651C27.2361 1.3466 25.5458 1.05366 23.8214 1.05366H14.8682C13.1335 1.05366 11.4398 1.3466 9.82695 1.92991C8.2669 2.49449 6.81755 3.31199 5.52148 4.36706C2.92424 6.4704 1.09255 9.41593 0.364467 12.634C0.353397 12.6825 0.342325 12.7302 0.331255 12.7821L0.315929 12.8562C0.241844 13.2096 0.186492 13.5622 0.144766 13.8338C0.0630168 14.4273 0.0153289 15.0336 0.00425869 15.6536L0 15.9176V24.8751C0 26.5875 0.293786 28.2745 0.869438 29.8907C1.42295 31.432 2.23278 32.8737 3.27678 34.1775C5.33925 36.7372 8.2141 38.5655 11.3759 39.3268L11.4619 39.3498L11.6808 39.3975C12.4463 39.5644 13.2187 39.6691 13.9766 39.7134H14.014C14.066 39.7177 14.1145 39.7211 14.1665 39.7211C14.3887 39.7356 14.6272 39.7398 14.8682 39.7398H23.8214C24.0632 39.7398 24.2974 39.7356 24.5205 39.7211H25.0068L25.0332 39.6913C25.6795 39.6393 26.3369 39.5423 26.9943 39.3975C27.0241 39.3941 27.1391 39.3677 27.1391 39.3677L27.1578 39.3643L27.2132 39.3524C30.4048 38.6064 33.3069 36.7781 35.383 34.2149C36.427 32.9291 37.2445 31.4806 37.8133 29.9129C38.3966 28.3 38.6938 26.6063 38.6938 24.8751V15.8988C38.6938 15.7694 38.6896 15.6502 38.6827 15.5386C38.6717 14.974 38.6231 14.3984 38.5448 13.8338Z" fill="#C12227"/>
<path d="M19.3047 31.2839L2.63467 17.2962L2.25232 16.9769V24.8751C2.25232 30.5294 6.06729 35.534 11.5326 37.0421C11.5666 37.0497 11.5998 37.0608 11.6365 37.0676V27.9815L14.0361 29.998V37.4619C14.0625 37.4619 14.0889 37.4653 14.1145 37.4696H14.1554C14.3819 37.484 14.6126 37.4917 14.869 37.4917H18.1049V33.4085L19.3047 34.4193L20.5011 33.4085V37.4917H23.8222C24.0785 37.4917 24.3127 37.484 24.5392 37.4696H24.569V29.998L26.973 27.9815V37.0906L27.0734 37.0642C29.6996 36.3583 32.0814 34.7795 33.7718 32.6106C35.5175 30.3736 36.4389 27.6988 36.4389 24.8751V16.902L36.0565 17.2255L19.3047 31.2839Z" fill="#C12227"/>
<path d="M16.5001 10.9879C16.4856 10.9879 16.4745 10.9879 16.4668 10.9806C16.4547 10.9806 16.4474 10.9782 16.4371 10.9782C16.4178 10.9734 16.3996 10.9734 16.3774 10.9709C16.3774 10.9709 16.3702 10.971 16.3654 10.9661C16.3533 10.9613 16.3437 10.9613 16.3287 10.9613C16.3094 10.9589 16.2913 10.9541 16.2691 10.9541C16.2546 10.9541 16.2428 10.9516 16.2317 10.9516C16.2099 10.9516 16.1908 10.9517 16.172 10.9468H16.1696C16.1363 10.9444 16.1023 10.9444 16.0692 10.9444C15.9277 10.9444 15.7908 10.9589 15.6605 10.9886C15.4937 11.0219 15.3369 11.0745 15.1887 11.1445V11.1469C15.159 11.159 15.1291 11.1732 15.0994 11.1877C15.0697 11.207 15.0441 11.2218 15.0142 11.2362V11.2386C15.0021 11.2435 14.9949 11.2507 14.9845 11.258C14.936 11.2886 14.8915 11.3176 14.8474 11.3516C14.8329 11.3613 14.8177 11.3772 14.8032 11.3883C14.7887 11.4004 14.7725 11.41 14.7581 11.4216C14.746 11.4337 14.7317 11.4479 14.7173 11.4557C14.71 11.4653 14.6955 11.4774 14.6839 11.489C14.6646 11.5035 14.6465 11.5223 14.6321 11.5409C14.5869 11.5851 14.5427 11.6336 14.5017 11.6823C14.4824 11.704 14.4643 11.7231 14.4498 11.7453L14.4013 11.8127C14.3892 11.8296 14.3757 11.8494 14.3639 11.8679C14.3518 11.8897 14.3421 11.9054 14.3306 11.9198C14.3161 11.9495 14.2973 11.9795 14.2828 12.0092C14.2683 12.0348 14.2521 12.0678 14.2376 12.0944C14.2231 12.1207 14.212 12.1463 14.2002 12.1728C14.2002 12.1752 14.1978 12.1801 14.1978 12.1849C14.1833 12.2139 14.1722 12.2479 14.1611 12.2776C14.1611 12.28 14.1563 12.2848 14.1563 12.2896C14.1442 12.3193 14.1346 12.3449 14.1266 12.3749C14.1145 12.4089 14.1097 12.4379 14.101 12.4719C14.0938 12.4975 14.0889 12.5238 14.0817 12.5537C14.0769 12.5658 14.0745 12.5793 14.0745 12.5945C14.0672 12.6208 14.0624 12.6498 14.06 12.6763L14.0503 12.7538C14.0455 12.7659 14.0455 12.7731 14.0455 12.7835C14.0431 12.8132 14.0431 12.8431 14.0431 12.8728C14.0407 12.9095 14.0406 12.9436 14.0406 12.9803V23.732L19.3083 28.1498L24.5727 23.7285V12.9803C24.5727 11.8588 23.6623 10.945 22.54 10.945C22.4362 10.945 22.3322 10.9547 22.2283 10.9713C22.1653 10.9786 22.098 10.9931 22.0316 11.0114C21.8383 11.0599 21.6527 11.1374 21.4858 11.2414C21.4295 11.2755 21.3742 11.3122 21.3214 11.3496C21.2702 11.387 21.2217 11.4314 21.1732 11.4722C21.1136 11.5285 21.0539 11.5871 21.003 11.6467C20.9885 11.666 20.969 11.6842 20.9579 11.7064C20.9434 11.7208 20.9323 11.7361 20.9245 11.7472C20.9125 11.7592 20.9052 11.7689 20.8982 11.7768C20.8838 11.7986 20.8685 11.821 20.8541 11.8398C20.8166 11.8995 20.7833 11.9547 20.7503 12.0177C20.7358 12.0441 20.7206 12.0696 20.7095 12.0962C20.695 12.1259 20.6798 12.1558 20.6687 12.1855C20.6494 12.2263 20.6354 12.263 20.6235 12.3038C20.6163 12.3231 20.6091 12.3412 20.6066 12.3634C20.5922 12.3975 20.5803 12.4341 20.5726 12.4716C20.5533 12.5346 20.5429 12.6019 20.5318 12.6683C20.5294 12.698 20.5246 12.7236 20.5197 12.7535C20.5173 12.768 20.5173 12.7875 20.5173 12.802C20.5125 12.8237 20.5101 12.8505 20.5101 12.8727C20.5101 12.9094 20.5077 12.9435 20.5077 12.9799V24.0075L19.3112 25.0132L18.1114 24.0075V12.9799C18.1114 12.8385 18.0969 12.7014 18.0663 12.5678C18.0144 12.3038 17.9103 12.0585 17.7623 11.8431C17.6133 11.6278 17.4276 11.4386 17.2122 11.2938C17.1904 11.2745 17.1636 11.2598 17.138 11.2453C17.138 11.2453 17.1332 11.2405 17.1308 11.2405V11.2381C17.1091 11.226 17.0866 11.2125 17.0635 11.2014C17.061 11.2014 17.0538 11.1941 17.0441 11.1893C17.0345 11.1869 17.0224 11.1797 17.0118 11.1724C16.97 11.1531 16.9292 11.135 16.8882 11.1162C16.881 11.1138 16.8786 11.1089 16.8665 11.1041L16.8298 11.092C16.825 11.0848 16.8177 11.0848 16.8153 11.08C16.8008 11.0751 16.7897 11.0727 16.7786 11.0679L16.7738 11.0631C16.7617 11.0631 16.7593 11.0607 16.7521 11.0558C16.7304 11.0486 16.7079 11.0413 16.6813 11.0341H16.6765C16.6509 11.0269 16.6212 11.0196 16.5956 11.0078H16.5836V11.0054C16.5573 10.9981 16.5317 10.9933 16.5051 10.9861" fill="#C12227"/>
<path d="M11.6369 21.7135V12.4554C11.6403 12.3966 11.6445 12.3362 11.6479 12.274C11.6513 12.2289 11.6556 12.1846 11.659 12.1395C11.6624 12.0952 11.6701 12.0509 11.6777 12.0058C11.6922 11.8908 11.7109 11.7759 11.7373 11.66C11.7476 11.6192 11.7561 11.5791 11.7663 11.5374C11.7961 11.4191 11.8259 11.3075 11.8668 11.1925C11.8787 11.1585 11.8898 11.1253 11.9042 11.0921C11.9375 10.9992 11.9749 10.9098 12.0115 10.8238C12.0269 10.7915 12.0413 10.7574 12.0558 10.7284C12.0677 10.6978 12.0831 10.6722 12.0976 10.6424C12.1274 10.5752 12.1682 10.5087 12.2014 10.4457C12.2202 10.4125 12.2389 10.3819 12.2576 10.3529C12.2943 10.2856 12.3385 10.2192 12.3837 10.1519C12.4058 10.1187 12.428 10.0847 12.4501 10.0523C12.5063 9.97737 12.5616 9.90329 12.617 9.83261C12.6357 9.80621 12.6545 9.78833 12.6732 9.76618C12.6987 9.73212 12.7251 9.70232 12.7515 9.67251C12.7848 9.63164 12.8214 9.59502 12.8588 9.55755C12.8886 9.52434 12.9184 9.49454 12.9517 9.46473C13.0411 9.37191 13.1373 9.28676 13.2344 9.20501C13.2531 9.19309 13.2676 9.17861 13.2863 9.16413C13.3272 9.13007 13.3681 9.09686 13.4124 9.06365C13.4864 9.0083 13.569 8.9521 13.6508 8.89675C13.7019 8.86269 13.7547 8.83288 13.81 8.79967C13.8356 8.78519 13.862 8.76646 13.8918 8.75113C13.9361 8.72558 13.9812 8.70344 14.0255 8.6813C14.074 8.65491 14.1226 8.62851 14.1745 8.60637C14.2111 8.59189 14.2452 8.57316 14.2818 8.55783C14.3414 8.52888 14.401 8.50673 14.4598 8.48374C14.4828 8.47267 14.5049 8.46501 14.5236 8.4582C14.5866 8.43606 14.6463 8.41306 14.7093 8.39433C14.728 8.38752 14.7459 8.38411 14.7646 8.37645C14.8021 8.36538 14.8387 8.35431 14.8762 8.34239C14.9622 8.32024 15.0473 8.2981 15.1359 8.27937C15.1589 8.27596 15.181 8.27171 15.2032 8.26489C15.3181 8.24275 15.4339 8.22402 15.5489 8.21295C15.5821 8.20954 15.6153 8.20528 15.6494 8.20188C15.7422 8.19081 15.8384 8.18655 15.9313 8.18314H16.2063C16.3025 8.18655 16.3996 8.19081 16.4924 8.20188C16.5222 8.20528 16.552 8.20528 16.5818 8.20954C16.6295 8.21635 16.6781 8.22402 16.73 8.23083C16.7786 8.23849 16.8271 8.24616 16.8756 8.25382C16.9157 8.26064 16.9608 8.27171 17.0051 8.27937C17.0757 8.2947 17.1498 8.31343 17.2205 8.33217C17.2546 8.34238 17.2869 8.35005 17.321 8.36112C17.3465 8.36878 17.3695 8.37645 17.3951 8.38411C17.4249 8.39433 17.4547 8.40199 17.4845 8.41306C17.5884 8.44627 17.6923 8.488 17.797 8.52888C17.8413 8.55102 17.8932 8.57316 17.9409 8.5953C17.9971 8.62084 18.0491 8.64724 18.1053 8.67364C18.1606 8.70344 18.216 8.7324 18.2688 8.76646C18.5983 8.9521 18.904 9.18287 19.1714 9.446C19.1902 9.46473 19.208 9.48347 19.2234 9.50135C19.2532 9.52775 19.2753 9.55415 19.3051 9.5831C19.3903 9.49028 19.4797 9.40172 19.5725 9.31997C19.6611 9.23822 19.7505 9.16414 19.8433 9.09346C19.8995 9.05258 19.9549 9.0083 20.0179 8.96657C20.0698 8.93336 20.1226 8.89675 20.1737 8.86269C20.2818 8.79626 20.39 8.7324 20.5007 8.67364C20.5382 8.65491 20.5756 8.63617 20.6165 8.61829C20.6565 8.59955 20.694 8.58082 20.7349 8.56209C20.7758 8.54335 20.8132 8.52888 20.8541 8.5144C20.895 8.49566 20.9358 8.48034 20.9767 8.46501C21.0176 8.45053 21.0542 8.43606 21.0993 8.42073C21.1027 8.41732 21.1104 8.41732 21.1181 8.41306C21.1436 8.40199 21.1734 8.39433 21.199 8.38752C21.2109 8.38411 21.222 8.37985 21.233 8.37645C21.2697 8.36538 21.3114 8.35431 21.348 8.34239C21.3889 8.33217 21.4332 8.31684 21.4783 8.30917C21.5226 8.2981 21.56 8.29044 21.6009 8.27937C21.6452 8.27171 21.6903 8.26064 21.7303 8.25382C21.7755 8.24616 21.8164 8.23849 21.8606 8.23509C21.9126 8.22402 21.9645 8.21976 22.0131 8.21295C22.0463 8.20954 22.0837 8.20528 22.117 8.20188C22.214 8.19081 22.3068 8.18655 22.3997 8.18314H22.6705C22.7709 8.18655 22.868 8.19081 22.96 8.20188C22.9898 8.20528 23.0196 8.20528 23.0494 8.20954C23.0979 8.21635 23.1465 8.22402 23.1984 8.23083C23.2461 8.23849 23.2947 8.24616 23.3432 8.25382C23.3875 8.26064 23.4283 8.27171 23.4701 8.27937C23.5144 8.29044 23.5552 8.2981 23.5918 8.30917C23.6404 8.31684 23.6813 8.33217 23.7298 8.34239C23.7596 8.35005 23.7886 8.36112 23.8192 8.36878C23.8294 8.37219 23.8448 8.37645 23.8558 8.38411C23.889 8.39092 23.9231 8.40199 23.9529 8.41306C23.9674 8.41732 23.9819 8.42073 23.9938 8.42499C24.0304 8.43946 24.0636 8.45053 24.1011 8.46501C24.1794 8.49566 24.2612 8.52888 24.3387 8.56209C24.3761 8.58082 24.4127 8.5953 24.4502 8.61403C24.4911 8.63276 24.532 8.65491 24.5694 8.67364C24.618 8.69919 24.658 8.72218 24.7031 8.74432C24.7474 8.76987 24.7925 8.79626 24.8326 8.82181L24.8368 8.82522C24.8777 8.84821 24.9186 8.87376 24.9594 8.90015C25.0191 8.93677 25.0744 8.97764 25.1298 9.01852C25.1604 9.04151 25.1894 9.06365 25.2192 9.08579C25.2566 9.11219 25.2898 9.13774 25.3231 9.16413C25.3605 9.19735 25.4014 9.23056 25.4389 9.26462C25.4721 9.29442 25.5095 9.32338 25.5428 9.35744C25.5794 9.39065 25.6168 9.42727 25.6535 9.46133C25.6841 9.49454 25.7173 9.52434 25.7471 9.55755L25.7582 9.56862L25.8578 9.68018C25.8919 9.71765 25.9251 9.75511 25.9583 9.79173C25.9736 9.81387 25.9881 9.83261 26.0035 9.85134C26.0179 9.86582 26.0324 9.88455 26.0443 9.90329C26.0775 9.94416 26.1107 9.98844 26.1405 10.0293C26.1669 10.0702 26.1959 10.1111 26.2257 10.1519C26.2521 10.1928 26.2785 10.2337 26.304 10.278C26.3262 10.3154 26.3526 10.3563 26.3747 10.3938C26.3781 10.4049 26.3858 10.4083 26.3892 10.4193C26.4122 10.4602 26.4343 10.4977 26.4565 10.5377L26.5229 10.6722C26.568 10.7608 26.6089 10.8545 26.6464 10.9507C26.6643 10.9958 26.683 11.0435 26.7017 11.0921H26.706C26.7205 11.1363 26.7349 11.1849 26.7503 11.2292L26.7537 11.2368C26.7681 11.2854 26.7835 11.3339 26.7979 11.3816C26.8831 11.6754 26.9393 11.9794 26.958 12.2996C26.9657 12.3992 26.9725 12.5073 26.9725 12.6155V21.7135L35.9343 14.1943L36.2758 13.9047C35.8117 11.0248 34.3402 8.37645 32.1219 6.42894C29.8184 4.41246 26.872 3.30118 23.8226 3.30118H14.8685C8.676 3.30118 3.35889 7.87062 2.4043 13.9678L2.75003 14.2573L11.6369 21.7135Z" fill="#C12227"/>
<path d="M134.783 31.2979H50.2283C47.3467 31.2979 45.01 28.9621 45.01 26.0804V14.713C45.01 11.8314 47.3467 9.4947 50.2283 9.4947H134.783C137.664 9.4947 140 11.8314 140 14.713V26.0804C140 28.9621 137.664 31.2979 134.783 31.2979Z" fill="#C12227"/>
<path d="M64.1907 14.3954C63.764 14.3954 63.4319 14.6117 63.254 15.0094L60.1415 22.5908L57.018 15.0009C56.9337 14.8152 56.806 14.6662 56.6374 14.5572C56.4696 14.4499 56.2865 14.3954 56.0932 14.3954C55.7901 14.3954 55.5312 14.5129 55.3473 14.7326C55.1778 14.9345 55.0927 15.1635 55.0927 15.4113C55.0927 15.5476 55.1173 15.6796 55.1684 15.8048L59.2065 25.8224C59.3819 26.2142 59.7132 26.4305 60.1407 26.4305C60.259 26.4305 60.3859 26.4066 60.5179 26.3606L60.5435 26.3513C60.7819 26.2482 60.9658 26.066 61.0774 25.8165L65.1155 15.8056C65.1657 15.6804 65.1921 15.5476 65.1921 15.4113C65.1921 15.1644 65.1061 14.9362 64.9366 14.7326C64.7518 14.5121 64.4938 14.3954 64.1907 14.3954Z" fill="white"/>
<path d="M77.7976 15.6439C77.4366 15.2658 77.004 14.961 76.5109 14.7379C76.0119 14.5105 75.4661 14.3964 74.8895 14.3964C74.1913 14.3964 73.5764 14.5429 73.0638 14.8315C72.7079 15.0325 72.3783 15.2778 72.0828 15.5664C71.7993 15.2692 71.4688 15.0189 71.0942 14.8196C70.5671 14.5395 69.9437 14.3964 69.2378 14.3964C68.6604 14.3964 68.1163 14.5105 67.6224 14.7387C67.1353 14.9618 66.7052 15.2667 66.3442 15.6439C65.9848 16.0212 65.6996 16.4691 65.4994 16.9741C65.2985 17.4782 65.1971 18.0257 65.1971 18.6014V25.4019C65.1971 25.6812 65.2985 25.9307 65.4918 26.1232C65.6842 26.3165 65.9337 26.4187 66.213 26.4187C66.4787 26.4187 66.7231 26.319 66.9198 26.13C67.1225 25.9358 67.229 25.6846 67.229 25.4019V18.6014C67.229 18.2974 67.28 18.0079 67.3797 17.7388C67.4776 17.4756 67.6164 17.2466 67.7927 17.0584C67.969 16.8676 68.1853 16.7135 68.4322 16.5985C68.674 16.4861 68.9448 16.4291 69.2378 16.4291C69.5222 16.4291 69.7785 16.4844 69.9999 16.5943C70.2247 16.7058 70.4146 16.8548 70.5645 17.0379C70.7186 17.227 70.8413 17.4552 70.9264 17.7158C71.0141 17.9849 71.0593 18.2735 71.0593 18.5775V22.8208C71.0593 23.101 71.1614 23.3497 71.3539 23.5421C71.5463 23.7354 71.7933 23.8376 72.0675 23.8376C72.346 23.8376 72.5963 23.7354 72.7896 23.5421C72.9821 23.3497 73.0843 23.1002 73.0843 22.8208V18.6014C73.0843 18.2897 73.1268 17.9917 73.2103 17.7166C73.2912 17.4535 73.4095 17.2244 73.5628 17.0388C73.7153 16.8523 73.8992 16.7067 74.1257 16.5934C74.3428 16.4844 74.6 16.4291 74.8895 16.4291C75.1876 16.4291 75.4626 16.4861 75.7079 16.5994C75.9574 16.7143 76.1737 16.8685 76.35 17.0584C76.5262 17.2466 76.665 17.4756 76.763 17.7388C76.8626 18.0079 76.9137 18.2974 76.9137 18.6014V25.4019C76.9137 25.6812 77.015 25.9307 77.2083 26.1232C77.4008 26.3165 77.6503 26.4187 77.9296 26.4187C78.1953 26.4187 78.4397 26.319 78.6372 26.13C78.8391 25.9358 78.9464 25.6846 78.9464 25.4019V18.6014C78.9464 18.0266 78.8442 17.479 78.6432 16.9741C78.4422 16.4691 78.1587 16.0212 77.7976 15.6439Z" fill="white"/>
<path d="M92.1644 20.0124C91.7761 19.6845 91.318 19.4282 90.8036 19.2502C90.2936 19.0757 89.7469 18.9862 89.178 18.9862C88.9115 18.9862 88.6586 18.9513 88.427 18.8824C88.2056 18.8159 88.0131 18.7206 87.8564 18.5988C87.704 18.4804 87.5856 18.3382 87.4945 18.1653C87.4076 17.9984 87.3651 17.8102 87.3651 17.588C87.3651 17.433 87.3923 17.2857 87.4485 17.1384C87.4962 17.0123 87.5771 16.9042 87.6989 16.8054C87.836 16.6947 88.025 16.6002 88.2592 16.5252C88.5019 16.4469 88.805 16.4077 89.1627 16.4077C89.4045 16.4077 89.6098 16.4316 89.7733 16.4776C89.9368 16.5244 90.0841 16.5891 90.2127 16.67C90.3447 16.7518 90.4656 16.8531 90.5746 16.9681C90.7023 17.1026 90.8335 17.2448 90.9671 17.3938C91.0974 17.5616 91.335 17.7523 91.7421 17.7523C92.0478 17.7523 92.3075 17.6306 92.4931 17.4006C92.6583 17.1937 92.7426 16.9757 92.7426 16.7509C92.7426 16.6274 92.7205 16.5065 92.6737 16.3924C92.6439 16.3166 92.6132 16.2485 92.5825 16.1872L92.5689 16.1616C92.3032 15.7112 91.9703 15.3578 91.5811 15.1108C91.2167 14.8792 90.8547 14.7055 90.5056 14.5931C90.1522 14.4807 89.8508 14.4168 89.5842 14.3998C89.2249 14.3751 89.1968 14.3751 89.178 14.3751C88.0472 14.3751 87.1207 14.6527 86.425 15.2002C85.7003 15.7716 85.3324 16.5746 85.3324 17.588C85.3324 18.116 85.4354 18.5988 85.6373 19.0246C85.8382 19.4461 86.1141 19.8122 86.4573 20.1103C86.7988 20.4083 87.2118 20.6374 87.6844 20.7924C88.1451 20.9431 88.6475 21.0198 89.178 21.0198C89.4888 21.0198 89.7843 21.064 90.0577 21.1517C90.3259 21.2386 90.5669 21.3638 90.773 21.5239C90.9723 21.6789 91.1264 21.8645 91.2439 22.0919C91.3572 22.315 91.4134 22.5568 91.4134 22.8319C91.4134 23.1035 91.3597 23.3275 91.2473 23.5157C91.1298 23.7149 90.9782 23.8733 90.7832 24.001C90.5797 24.1356 90.3395 24.2344 90.0688 24.2957C89.7792 24.3613 89.4795 24.3953 89.178 24.3953C88.6552 24.3953 88.1996 24.2744 87.8249 24.0368C87.4528 23.8001 87.1931 23.5148 87.0313 23.1648C86.9461 22.9264 86.8158 22.7271 86.6438 22.5721C86.4445 22.3942 86.2052 22.3013 85.9498 22.3013C85.673 22.3013 85.4303 22.4078 85.2472 22.6088C85.0727 22.7995 84.9807 23.0448 84.9807 23.3173C84.9807 23.4961 85.0122 23.6638 85.0769 23.8146C85.346 24.4328 85.6952 24.9275 86.1158 25.2869C86.5212 25.6335 86.9342 25.8966 87.3446 26.0678C87.7525 26.2389 88.1298 26.3437 88.4678 26.3794C88.7829 26.4118 88.9949 26.4288 89.1159 26.4288C89.6856 26.4288 90.2314 26.359 90.7381 26.2228C91.2609 26.0814 91.7267 25.8591 92.1227 25.5611C92.5272 25.2571 92.8516 24.8739 93.0875 24.4234C93.3251 23.9678 93.446 23.4331 93.446 22.8319C93.446 22.2528 93.3302 21.7155 93.102 21.2352C92.8746 20.7575 92.5587 20.3462 92.1644 20.0124Z" fill="white"/>
<path d="M100.885 14.3991H94.4682C94.1863 14.3991 93.9342 14.5055 93.7409 14.7082C93.5519 14.9049 93.4514 15.1502 93.4514 15.415C93.4514 15.6943 93.5536 15.9438 93.7469 16.1371C93.9402 16.3304 94.1897 16.4318 94.4682 16.4318H96.6567L96.6643 25.3782C96.6643 25.6609 96.7708 25.9121 96.9726 26.1054C97.1702 26.2945 97.412 26.395 97.6726 26.395C97.9527 26.395 98.2014 26.2928 98.3947 26.0995C98.5871 25.907 98.6893 25.6575 98.6893 25.3782L98.6817 16.4318H100.885C101.168 16.4318 101.42 16.3253 101.613 16.1226C101.802 15.9251 101.902 15.6807 101.902 15.415C101.902 15.1365 101.8 14.887 101.608 14.6937C101.414 14.5013 101.165 14.3991 100.885 14.3991Z" fill="white"/>
<path d="M110.226 14.3991C109.947 14.3991 109.697 14.5013 109.504 14.6937C109.311 14.8871 109.209 15.1366 109.209 15.415V18.5411C109.209 18.8349 109.153 19.1167 109.042 19.3807C108.931 19.6447 108.776 19.8746 108.581 20.0645C108.384 20.2587 108.146 20.4162 107.878 20.5337C107.365 20.7577 106.728 20.7687 106.177 20.5329C105.905 20.4153 105.666 20.257 105.468 20.0645C105.273 19.8729 105.115 19.6413 104.998 19.3747C104.881 19.1099 104.824 18.8374 104.824 18.5411V15.415C104.824 15.1332 104.719 14.8811 104.516 14.6878C104.318 14.4987 104.074 14.3991 103.808 14.3991C103.529 14.3991 103.28 14.5013 103.088 14.6937C102.894 14.8871 102.792 15.1357 102.792 15.415V18.5411C102.792 19.0597 102.884 19.5578 103.067 20.0228C103.246 20.4843 103.5 20.9024 103.819 21.2678C104.137 21.6322 104.519 21.9405 104.953 22.1866C105.288 22.3756 105.643 22.5187 106.012 22.6132L106.015 25.0657C106.015 25.3484 106.107 25.936 106.309 26.1293C106.506 26.3192 106.748 26.4188 107.009 26.4188C107.288 26.4188 107.537 26.3166 107.73 26.1242C107.923 25.9309 108.04 25.345 108.04 25.0657L108.037 22.6132C108.407 22.5187 108.76 22.3756 109.091 22.1857C109.52 21.9396 109.897 21.6305 110.213 21.2661C110.527 20.9024 110.781 20.4843 110.963 20.0253C111.149 19.5595 111.242 19.0605 111.242 18.5411V15.415C111.242 15.1332 111.135 14.8811 110.933 14.6878C110.736 14.4987 110.491 14.3991 110.226 14.3991Z" fill="white"/>
<path d="M119.564 24.3953H114.163L114.164 15.3969C114.164 15.115 114.057 14.8638 113.855 14.6696C113.657 14.4806 113.413 14.381 113.147 14.381C112.868 14.381 112.618 14.4832 112.426 14.6756C112.233 14.8681 112.131 15.1184 112.131 15.3969L112.13 25.412C112.13 25.6939 112.238 25.9459 112.439 26.1392C112.636 26.3283 112.881 26.4279 113.147 26.4279H119.564C119.847 26.4279 120.098 26.3215 120.291 26.1188C120.48 25.9212 120.581 25.6768 120.581 25.412C120.581 25.1327 120.479 24.8832 120.285 24.6899C120.092 24.4974 119.843 24.3953 119.564 24.3953Z" fill="white"/>
<path d="M128.902 24.3953H123.5V21.4148H124.979C125.261 21.4148 125.513 21.3075 125.706 21.1057C125.894 20.9081 125.995 20.6663 125.995 20.4057C125.995 20.1273 125.893 19.8778 125.7 19.6845C125.507 19.492 125.257 19.3898 124.979 19.3898H123.5V16.4017H128.902C129.185 16.4017 129.436 16.2953 129.629 16.0926C129.818 15.895 129.919 15.6506 129.919 15.3849C129.919 15.1065 129.816 14.857 129.623 14.6637C129.431 14.4704 129.18 14.369 128.902 14.369H122.485C122.206 14.369 121.956 14.4704 121.764 14.6637C121.57 14.857 121.468 15.1056 121.468 15.568V25.5934C121.468 25.6939 121.575 25.9459 121.777 26.1392C121.974 26.3283 122.219 26.4279 122.485 26.4279H128.902C129.185 26.4279 129.436 26.3215 129.629 26.1188C129.818 25.9212 129.919 25.6768 129.919 25.412C129.919 25.1327 129.816 24.8832 129.623 24.6899C129.43 24.4974 129.18 24.3953 128.902 24.3953Z" fill="white"/>
</svg>
