<svg width="24" height="25" viewBox="0 0 24 25" fill="none" xmlns="http://www.w3.org/2000/svg">
<path d="M10.554 6.74L7.17099 2.835C6.78099 2.385 6.06599 2.387 5.61299 2.841L2.83099 5.628C2.00299 6.457 1.76599 7.688 2.24499 8.675C5.10661 14.6 9.88503 19.3851 15.806 22.255C16.792 22.734 18.022 22.497 18.85 21.668L21.658 18.855C22.113 18.4 22.114 17.681 21.66 17.291L17.74 13.926C17.33 13.574 16.693 13.62 16.282 14.032L14.918 15.398C14.8482 15.4712 14.7562 15.5194 14.6563 15.5353C14.5564 15.5512 14.4541 15.5339 14.365 15.486C12.1354 14.2021 10.286 12.3502 9.00499 10.119C8.95702 10.0298 8.93964 9.92723 8.95554 9.82716C8.97144 9.72708 9.01972 9.63499 9.09299 9.565L10.453 8.204C10.865 7.79 10.91 7.15 10.554 6.739V6.74Z" stroke="#C22026" stroke-width="2" stroke-linecap="round" stroke-linejoin="round"/>
</svg>
