<svg width="24" height="24" viewBox="0 0 24 24" fill="none" xmlns="http://www.w3.org/2000/svg">
<path d="M4.8 11.0001H19.2C19.4122 11.0001 19.6157 10.8947 19.7657 10.7072C19.9157 10.5196 20 10.2653 20 10.0001C20 9.73484 19.9157 9.48049 19.7657 9.29295C19.6157 9.10542 19.4122 9.00006 19.2 9.00006H4.8C4.58783 9.00006 4.38434 9.10542 4.23431 9.29295C4.08429 9.48049 4 9.73484 4 10.0001C4 10.2653 4.08429 10.5196 4.23431 10.7072C4.38434 10.8947 4.58783 11.0001 4.8 11.0001ZM19.2 13.0001H4.8C4.58783 13.0001 4.38434 13.1054 4.23431 13.293C4.08429 13.4805 4 13.7348 4 14.0001C4 14.2653 4.08429 14.5196 4.23431 14.7072C4.38434 14.8947 4.58783 15.0001 4.8 15.0001H19.2C19.4122 15.0001 19.6157 14.8947 19.7657 14.7072C19.9157 14.5196 20 14.2653 20 14.0001C20 13.7348 19.9157 13.4805 19.7657 13.293C19.6157 13.1054 19.4122 13.0001 19.2 13.0001Z" fill="#292929"/>
</svg>
