<svg width="24" height="26" viewBox="0 0 24 26" fill="none" xmlns="http://www.w3.org/2000/svg">
<rect x="0.365234" y="0.307007" width="23.2705" height="25.386" rx="3" fill="#DC3A35"/>
<path fill-rule="evenodd" clip-rule="evenodd" d="M6.4346 10.6109L2.95298 14.4092C2.6838 14.7028 2.6838 15.179 2.95298 15.4726L6.4346 19.2707C6.70378 19.5644 7.14022 19.5644 7.4094 19.2707C7.67859 18.9771 7.67859 18.501 7.4094 18.2073L5.10447 15.6928H17.7432V14.1889H5.10447L7.4094 11.6743C7.67859 11.3806 7.67859 10.9045 7.4094 10.6109C7.14022 10.3172 6.70378 10.3172 6.4346 10.6109Z" fill="white"/>
<path d="M17.7432 15.6928V14.1889C19.6822 14.1889 21.2491 15.5919 21.249 17.6162C21.249 18.6159 20.3088 20.6508 17.7432 20.6508C17.7432 20.6508 13.8059 20.6508 12.6414 20.6508C11.4769 20.6508 11.4974 19.1946 12.6414 19.1946C13.7854 19.1946 17.7432 19.1946 17.7432 19.1946C19.7719 19.1946 20.7336 16.1042 17.7432 15.6928Z" fill="white"/>
<rect x="8.82715" y="0.307007" width="6.3465" height="5.76955" rx="1.3" fill="white"/>
</svg>
