<svg width="146" height="140" viewBox="0 0 146 140" fill="none" xmlns="http://www.w3.org/2000/svg">
<circle cx="76.6207" cy="79.0345" r="60.3448" fill="#FFF1F0"/>
<path d="M127.475 91.7069C130.482 84.25 132.138 76.1028 132.138 67.569C132.138 31.9085 103.229 3 67.569 3C31.9085 3 3 31.9085 3 67.569C3 103.229 31.9085 132.138 67.569 132.138C78.7122 132.138 89.1962 129.315 98.3448 124.346" stroke="#FFC5C3" stroke-width="4.83037"/>
<circle cx="51.2757" cy="52.4828" r="6.03448" fill="#FFC5C3"/>
<path d="M89.8966 52.4828C89.8966 55.8156 87.1949 58.5173 83.8621 58.5173C80.5294 58.5173 77.8276 55.8156 77.8276 52.4828C77.8276 49.1501 80.5294 46.4484 83.8621 46.4484C87.1949 46.4484 89.8966 49.1501 89.8966 52.4828Z" fill="#FFC5C3"/>
<path d="M46.4482 82.3827C53.1852 76.3485 73.2738 73.2103 87.4827 82.3827" stroke="#FFC5C3" stroke-width="4.83037" stroke-linecap="round"/>
<path d="M143 136.965L131.032 124.976L143 136.965ZM137.664 108.953C137.664 114.967 135.275 120.735 131.023 124.988C126.77 129.241 121.002 131.63 114.987 131.63C108.973 131.63 103.205 129.241 98.9525 124.988C94.6997 120.735 92.3105 114.967 92.3105 108.953C92.3105 102.938 94.6997 97.1705 98.9525 92.9177C103.205 88.665 108.973 86.2758 114.987 86.2758C121.002 86.2758 126.77 88.665 131.023 92.9177C135.275 97.1705 137.664 102.938 137.664 108.953V108.953Z" stroke="#FFC5C3" stroke-width="4.83037" stroke-linecap="round" stroke-linejoin="round"/>
</svg>
