<svg width="30" height="30" viewBox="0 0 30 30" fill="none" xmlns="http://www.w3.org/2000/svg">
<g clip-path="url(#clip0_2249_58423)">
<path d="M25.6107 30H4.38899C1.96508 30 0 28.0104 0 25.5562V4.44382C0 1.98963 1.96508 0 4.38899 0H25.611C28.0349 0 30 1.98963 30 4.44382V25.5562C30 28.0106 28.0349 30 25.6107 30Z" fill="url(#paint0_linear_2249_58423)"/>
<path fill-rule="evenodd" clip-rule="evenodd" d="M25.2854 9.30307C25.2854 9.05605 25.087 8.85575 24.8416 8.85575H20.0328C19.9151 5.71669 17.6742 3.21338 14.9266 3.21338C12.179 3.21338 9.93808 5.71669 9.82038 8.85575H5.00516C4.76355 8.86034 4.56864 9.05875 4.56864 9.30307C4.56864 9.31467 4.56945 9.32655 4.57053 9.33816H4.56702L5.25325 24.4701C5.25325 24.5122 5.25514 24.5545 5.25865 24.5975C5.25865 24.6075 5.25946 24.6164 5.26054 24.6261L5.26243 24.6585L5.26432 24.6593C5.36852 25.7129 6.13277 26.5609 7.17129 26.6003L7.17399 26.6022H22.5251L22.5259 26.6014C23.583 26.5727 24.4399 25.7129 24.5298 24.6469L24.5306 24.6461L24.5314 24.6318C24.5322 24.621 24.5333 24.6102 24.5333 24.5986C24.5352 24.5716 24.5368 24.5446 24.5368 24.5186L25.2859 9.32655H25.2851C25.2854 9.31818 25.2854 9.31089 25.2854 9.30307ZM14.9266 4.57855C16.9278 4.57855 18.5597 6.47824 18.6361 8.85575H11.2171C11.2933 6.47824 12.9246 4.57855 14.9266 4.57855ZM18.7233 20.7182C18.5878 21.8409 17.9069 22.741 16.8522 23.191C16.2648 23.4426 15.4771 23.5781 14.8529 23.5349C13.8792 23.4982 12.9648 23.2609 12.1223 22.8282C11.8205 22.6738 11.3724 22.3647 11.0274 22.0755C10.9402 22.0026 10.9294 21.9562 10.9869 21.8733C11.0182 21.8266 11.0757 21.7421 11.2034 21.5553C11.3875 21.2851 11.4099 21.2516 11.4315 21.2195C11.4898 21.1296 11.5859 21.1215 11.6804 21.196C11.6904 21.2033 11.6904 21.2033 11.6985 21.2095C11.7139 21.2211 11.7139 21.2211 11.7506 21.25C11.7873 21.2786 11.8089 21.2959 11.8181 21.3021C12.727 22.0143 13.786 22.4249 14.8548 22.4662C16.3423 22.4454 17.4118 21.7772 17.6032 20.7506C17.8143 19.6205 16.927 18.6444 15.1917 18.1001C14.6483 17.9303 13.2766 17.3807 13.0234 17.2325C11.8359 16.5355 11.28 15.623 11.3591 14.4949C11.4803 12.9321 12.9311 11.7662 14.7652 11.7581C15.5853 11.7572 16.4035 11.927 17.1894 12.2583C17.4677 12.376 17.9644 12.6462 18.1361 12.7739C18.2349 12.8468 18.2546 12.931 18.1982 13.0228C18.1658 13.0757 18.1137 13.1594 18.0041 13.3346L18.0022 13.3365C17.8575 13.5665 17.8532 13.5735 17.82 13.6275C17.7625 13.7155 17.6942 13.7236 17.5911 13.658C16.7494 13.093 15.8172 12.8085 14.7914 12.7877C13.515 12.8128 12.5585 13.5727 12.4956 14.6083C12.4786 15.5434 13.18 16.225 14.6944 16.746C17.7684 17.7333 18.9452 18.8911 18.7233 20.7182Z" fill="white"/>
</g>
<defs>
<linearGradient id="paint0_linear_2249_58423" x1="-0.000142377" y1="15" x2="29.9999" y2="15" gradientUnits="userSpaceOnUse">
<stop stop-color="#FF6633"/>
<stop offset="0.3304" stop-color="#FD5D32"/>
<stop offset="0.8782" stop-color="#F7432E"/>
<stop offset="0.9944" stop-color="#F53D2D"/>
</linearGradient>
<clipPath id="clip0_2249_58423">
<rect width="30" height="30" fill="white"/>
</clipPath>
</defs>
</svg>
