<svg width="30" height="30" viewBox="0 0 30 30" fill="none" xmlns="http://www.w3.org/2000/svg">
<path d="M15 0C6.71572 0 0 6.71572 0 15C0 23.2843 6.71572 30 15 30C23.2843 30 30 23.2843 30 15C30 6.71572 23.2843 0 15 0Z" fill="#D31A1A"/>
<path d="M14.3999 12.2248H14.6795C15.2982 12.2248 15.8007 11.7253 15.8045 11.1066V9.28619C15.7934 8.67553 15.2971 8.18527 14.6863 8.18164H14.4067C13.788 8.18164 13.2855 8.68115 13.2817 9.29984V11.1203C13.2929 11.731 13.7892 12.2213 14.3999 12.2248ZM14.1204 9.21805C14.1206 8.98461 14.3099 8.79541 14.5434 8.79559C14.7766 8.79576 14.9657 8.98479 14.9658 9.21805V11.1748C14.9657 11.4083 14.7763 11.5975 14.5429 11.5973C14.3096 11.5971 14.1206 11.4081 14.1204 11.1748V9.21805Z" fill="white"/>
<path d="M11.0795 12.1567H12.0682V9.9817L13.1932 6.8999H12.2727L11.5909 8.94535L10.9091 6.8999H9.89319L11.0932 9.9817L11.0795 12.1567Z" fill="white"/>
<path d="M17.2159 12.2248C17.6139 12.1866 17.9867 12.0133 18.2727 11.7339V12.1567H19.0909V8.1817H18.2727V11.2635C18.2727 11.2635 17.9931 11.5907 17.7272 11.5907C17.4613 11.5907 17.4477 11.3794 17.4477 11.3794V8.18164H16.5818V11.6794C16.6291 11.9931 16.8987 12.225 17.2159 12.2248Z" fill="white"/>
<path d="M16.6568 17.8389C16.4925 17.8469 16.3391 17.9236 16.234 18.0502V20.873C16.3419 20.9923 16.4959 21.0594 16.6568 21.0571C17.0795 21.0571 17.0795 20.5866 17.0795 20.5866V18.3094C17.0795 18.3093 17.0045 17.8389 16.6568 17.8389Z" fill="white"/>
<path d="M19.8954 17.8389C19.4727 17.8389 19.4727 18.3093 19.4727 18.3093V18.9161H20.3181V18.3093C20.3182 18.3093 20.3182 17.8389 19.8954 17.8389Z" fill="white"/>
<path d="M20.2104 14.1423C20.1986 14.1425 20.1868 14.1428 20.1749 14.1432H20.1613C20.1613 14.1432 17.5908 14 14.9999 14C12.409 14 9.82494 14.1363 9.82494 14.1363C8.6959 14.0987 7.75008 14.9834 7.71246 16.1125C7.7124 16.0894 7.7117 16.1356 7.71246 16.1125C7.58227 16.9702 7.51049 17.9052 7.5 18.7727C7.50961 19.6493 7.58021 20.5241 7.71135 21.3909C7.7107 22.5206 8.626 23.4369 9.75568 23.4375C9.77877 23.4375 9.80191 23.4371 9.825 23.4363C9.825 23.4363 12.3682 23.5727 15 23.5727C17.6318 23.5727 20.175 23.4363 20.175 23.4363C21.304 23.474 22.251 22.5199 22.2886 21.3909C22.2887 21.414 22.2894 21.3678 22.2886 21.3909C22.4191 20.5241 22.4897 19.6493 22.4999 18.7727C22.4913 17.8961 22.4207 17.0212 22.2886 16.1545C22.2704 15.025 21.34 14.1241 20.2104 14.1423ZM11.9386 16.4272H10.909V21.7318H9.89314V16.4272H8.86359V15.5545H11.959L11.9386 16.4272ZM14.6181 21.7318H13.7659V21.3296C13.4759 21.5997 13.1039 21.7653 12.7091 21.8C12.3919 21.8066 12.1198 21.5754 12.075 21.2613V17.0954H12.9546V20.9887C12.9546 20.9887 12.9546 21.1932 13.2341 21.1932C13.5137 21.1932 13.8 20.8591 13.8 20.8591V17.0954H14.6454L14.6181 21.7318ZM17.1477 21.8C16.789 21.8032 16.4501 21.6363 16.234 21.35V21.7318H15.3136V15.5546H16.2272V17.5591C16.4611 17.2942 16.7886 17.1304 17.1409 17.1023C17.7068 17.1023 17.9181 17.5728 17.9181 18.1796L17.9249 20.7228C17.9249 20.7228 17.9249 21.8 17.1477 21.8ZM21.2317 19.6046H19.4726V20.6137C19.4726 20.6137 19.4726 21.0841 19.8954 21.0841C20.3181 21.0841 20.3181 20.6137 20.3181 20.6137V20.1363H21.2318V20.8727C21.1095 21.463 20.564 21.8677 19.9636 21.8136C19.3417 21.8696 18.7683 21.474 18.5999 20.8727V18.2409C18.6189 17.5859 19.1652 17.0704 19.8202 17.0894C19.8682 17.0908 19.9161 17.095 19.9636 17.1022C20.5712 17.0153 21.1342 17.4373 21.2212 18.0449C21.2306 18.1098 21.2341 18.1754 21.2318 18.2409L21.2317 19.6046Z" fill="white"/>
</svg>
