<svg width="30" height="30" viewBox="0 0 30 30" fill="none" xmlns="http://www.w3.org/2000/svg">
<g clip-path="url(#clip0_2249_55499)">
<path d="M15 30C23.2843 30 30 23.2843 30 15C30 6.71573 23.2843 0 15 0C6.71573 0 0 6.71573 0 15C0 23.2843 6.71573 30 15 30Z" fill="url(#paint0_linear_2249_55499)"/>
<path d="M18.1867 6.6665H11.82C8.98001 6.6665 6.67334 8.97317 6.67334 11.8132V18.1798C6.67334 21.0198 8.98001 23.3265 11.82 23.3265H18.1867C21.0267 23.3265 23.3333 21.0198 23.3333 18.1798V11.8132C23.3333 8.97317 21.0267 6.6665 18.1867 6.6665ZM21.4733 18.1865C21.4733 19.9998 20 21.4798 18.18 21.4798H11.8133C10 21.4798 8.52001 20.0065 8.52001 18.1865V11.8198C8.52001 10.0065 9.99334 8.5265 11.8133 8.5265H18.18C19.9933 8.5265 21.4733 9.99984 21.4733 11.8198V18.1865Z" fill="white"/>
<path d="M15 10.7397C12.6533 10.7397 10.74 12.6531 10.74 14.9997C10.74 17.3464 12.6533 19.2597 15 19.2597C17.3467 19.2597 19.26 17.3464 19.26 14.9997C19.26 12.6531 17.3467 10.7397 15 10.7397ZM15 17.5864C13.5733 17.5864 12.4133 16.4264 12.4133 14.9997C12.4133 13.5731 13.5733 12.4131 15 12.4131C16.4267 12.4131 17.5867 13.5731 17.5867 14.9997C17.5867 16.4264 16.4267 17.5864 15 17.5864Z" fill="white"/>
<path d="M19.5845 11.2065C19.9769 11.1428 20.2435 10.7731 20.1799 10.3806C20.1163 9.98815 19.7465 9.72157 19.3541 9.78519C18.9616 9.84881 18.695 10.2186 18.7586 10.611C18.8223 11.0035 19.192 11.2701 19.5845 11.2065Z" fill="white"/>
</g>
<defs>
<linearGradient id="paint0_linear_2249_55499" x1="3.5786" y1="26.4214" x2="24.8953" y2="5.10473" gradientUnits="userSpaceOnUse">
<stop stop-color="#FEE411"/>
<stop offset="0.0518459" stop-color="#FEDB16"/>
<stop offset="0.1381" stop-color="#FEC125"/>
<stop offset="0.2481" stop-color="#FE983D"/>
<stop offset="0.3762" stop-color="#FE5F5E"/>
<stop offset="0.5" stop-color="#FE2181"/>
<stop offset="1" stop-color="#9000DC"/>
</linearGradient>
<clipPath id="clip0_2249_55499">
<rect width="30" height="30" fill="white"/>
</clipPath>
</defs>
</svg>
