<svg width="30" height="30" viewBox="0 0 30 30" fill="none" xmlns="http://www.w3.org/2000/svg">
<path d="M0 4C0 1.79086 1.79086 0 4 0H26C28.2091 0 30 1.79086 30 4V26C30 28.2091 28.2091 30 26 30H4C1.79086 30 0 28.2091 0 26V4Z" fill="url(#paint0_linear_2249_59419)"/>
<path d="M15.005 25.4854C14.8344 25.4864 14.6667 25.4426 14.5185 25.3589C13.249 24.6243 3.84672 18.7291 3.49167 18.5493C3.35874 18.4873 3.24407 18.3921 3.15878 18.2728C3.07348 18.1535 3.02046 18.0142 3.00485 17.8684V9.59929C3.00152 9.44747 3.03688 9.29731 3.10759 9.16293C3.1783 9.02855 3.28204 8.91437 3.40905 8.83114L3.47671 8.79232C4.38659 8.22788 7.4314 6.36965 7.91323 6.10221C8.02368 6.03665 8.14947 6.0014 8.2779 6C8.39827 6.00142 8.5165 6.03134 8.62333 6.08761C8.62333 6.08761 12.8839 8.86497 13.536 9.11283C13.9933 9.32285 14.4919 9.42751 14.995 9.41909C15.5653 9.43106 16.1289 9.29356 16.6296 9.02024C17.2663 8.68513 21.3378 6.10256 21.3813 6.10256C21.4838 6.0406 21.6021 6.00855 21.7217 6.00997C21.8503 6.01068 21.9763 6.04594 22.0864 6.11218C22.6409 6.41844 26.4154 8.72893 26.576 8.83114C26.7064 8.90987 26.8141 9.02129 26.8883 9.15439C26.9625 9.28749 27.0007 9.43765 26.999 9.59003V17.8587C26.9844 18.0048 26.9319 18.1444 26.8466 18.2639C26.7613 18.3833 26.6463 18.4784 26.5129 18.5396C26.1579 18.7341 16.7849 24.6293 15.4911 25.3493C15.3437 25.4367 15.1759 25.4836 15.0046 25.4854" fill="url(#paint1_linear_2249_59419)"/>
<path d="M14.9567 25.4854H15.0055C15.1757 25.4864 15.3438 25.4426 15.4916 25.3589C16.7611 24.6243 26.1587 18.7291 26.5134 18.5492C26.6468 18.488 26.7619 18.393 26.8473 18.2736C26.9326 18.1541 26.9852 18.0144 26.9999 17.8683V9.59928C27.0015 9.45939 26.9699 9.32111 26.9076 9.1958L14.9567 15.7573V25.4854Z" fill="url(#paint2_linear_2249_59419)"/>
<path d="M14.9149 25.369H14.8666C14.6982 25.37 14.5319 25.3267 14.3857 25.2439C13.1297 24.5171 3.83218 18.6847 3.48127 18.5067C3.34926 18.4462 3.23539 18.3522 3.15096 18.234C3.06653 18.1158 3.01449 17.9776 2.99999 17.8331V9.65211C2.99842 9.51371 3.02969 9.3769 3.09125 9.25293L14.9149 15.7445V25.369Z" fill="url(#paint3_linear_2249_59419)"/>
<path d="M8 11H9.1955V16.752H11.2562V17.8874H8.00501L8 11ZM14.0247 12.7256C14.3371 12.7217 14.6462 12.7901 14.9278 12.9254C15.2093 13.0608 15.4558 13.2594 15.6479 13.5059V12.8281H16.7631V17.8975H15.6479V17.2196C15.4558 17.466 15.2093 17.6647 14.9277 17.8C14.6461 17.9354 14.337 18.0038 14.0246 17.9998C12.6341 17.9998 11.5788 16.8119 11.5788 15.3615C11.5788 13.9109 12.6342 12.7256 14.0247 12.7256ZM14.2273 13.7409C13.3244 13.7409 12.7267 14.4512 12.7267 15.3615C12.7267 16.2718 13.3343 16.9846 14.2273 16.9846C15.1201 16.9846 15.7279 16.2743 15.7279 15.3615C15.7279 14.4486 15.13 13.7409 14.2273 13.7409ZM17.631 17.0171L20.2894 13.8411H17.6709V12.8281H21.7298V13.7209L19.0816 16.8846H21.7899V17.8975H17.631V17.0171Z" fill="white"/>
<defs>
<linearGradient id="paint0_linear_2249_59419" x1="15" y1="0" x2="15" y2="30" gradientUnits="userSpaceOnUse">
<stop stop-color="#0000BF"/>
<stop offset="1" stop-color="#0F146E"/>
</linearGradient>
<linearGradient id="paint1_linear_2249_59419" x1="2.99025" y1="6.17806" x2="26.7644" y2="5.99395" gradientUnits="userSpaceOnUse">
<stop stop-color="#FFB900"/>
<stop offset="0.338" stop-color="#F38000"/>
<stop offset="0.567" stop-color="#F83C72"/>
<stop offset="0.78" stop-color="#FC1CBE"/>
<stop offset="0.93" stop-color="#FE08ED"/>
<stop offset="1" stop-color="#FF00FF"/>
</linearGradient>
<linearGradient id="paint2_linear_2249_59419" x1="9.66973" y1="23.4519" x2="33.9086" y2="10.0313" gradientUnits="userSpaceOnUse">
<stop stop-color="#EE0A3F"/>
<stop offset="1" stop-color="#EE0A3F" stop-opacity="0"/>
</linearGradient>
<linearGradient id="paint3_linear_2249_59419" x1="12.0283" y1="19.9548" x2="0.315631" y2="10.5195" gradientUnits="userSpaceOnUse">
<stop stop-color="#ED6600"/>
<stop offset="1" stop-color="#F98200"/>
</linearGradient>
</defs>
</svg>
