<svg width="30" height="30" viewBox="0 0 30 30" fill="none" xmlns="http://www.w3.org/2000/svg">
<circle cx="15" cy="15" r="15" fill="#010101"/>
<path fill-rule="evenodd" clip-rule="evenodd" d="M19.5989 12.235C20.8393 13.1212 22.3589 13.6426 24 13.6426V10.4861C23.6894 10.4862 23.3796 10.4538 23.0757 10.3894V12.8741C21.4348 12.8741 19.9154 12.3526 18.6747 11.4665V17.9079C18.6747 21.1303 16.0612 23.7423 12.8373 23.7423C11.6345 23.7423 10.5164 23.3789 9.58765 22.7555C10.6477 23.8388 12.1259 24.5109 13.7614 24.5109C16.9854 24.5109 19.5991 21.8988 19.5991 18.6763V12.235H19.5989ZM20.7391 9.05049C20.1052 8.35834 19.689 7.46378 19.5989 6.47482V6.06885H18.7231C18.9435 7.32574 19.6955 8.3996 20.7391 9.05049ZM11.6267 20.2829C11.2725 19.8187 11.0811 19.2509 11.082 18.6671C11.082 17.1933 12.2774 15.9984 13.7523 15.9984C14.0271 15.9982 14.3003 16.0404 14.5623 16.1234V12.8964C14.2562 12.8545 13.9473 12.8367 13.6384 12.8433V15.355C13.3763 15.272 13.103 15.2298 12.828 15.23C11.3532 15.23 10.1578 16.4249 10.1578 17.8988C10.1578 18.941 10.7553 19.8433 11.6267 20.2829Z" fill="#EE1D52"/>
<path fill-rule="evenodd" clip-rule="evenodd" d="M18.6748 11.4665C19.9154 12.3526 21.4348 12.8741 23.0758 12.8741V10.3894C22.1598 10.1945 21.3489 9.71599 20.7392 9.05049C19.6956 8.3996 18.9436 7.32574 18.7232 6.06885H16.4225V18.6762C16.4173 20.1459 15.2239 21.336 13.7522 21.336C12.885 21.336 12.1145 20.9229 11.6266 20.2829C10.7553 19.8433 10.1578 18.941 10.1578 17.8988C10.1578 16.4249 11.3532 15.23 12.828 15.23C13.1105 15.23 13.3829 15.274 13.6383 15.355V12.8433C10.4712 12.9087 7.92395 15.4952 7.92395 18.6763C7.92395 20.2643 8.55829 21.7039 9.58772 22.7556C10.5165 23.379 11.6346 23.7424 12.8374 23.7424C16.0612 23.7424 18.6748 21.1303 18.6748 17.908V11.4665Z" fill="white"/>
<path fill-rule="evenodd" clip-rule="evenodd" d="M23.0759 10.3888V9.71695C22.2498 9.7182 21.4401 9.48699 20.7392 9.04975C21.3596 9.72861 22.1765 10.1968 23.0759 10.3888ZM18.7232 6.06822C18.7022 5.94811 18.686 5.8272 18.6748 5.70577V5.2998H15.4983V17.9073C15.4932 19.3769 14.2998 20.5669 12.8281 20.5669C12.3959 20.5669 11.988 20.4645 11.6267 20.2822C12.1146 20.9222 12.8851 21.3353 13.7523 21.3353C15.2239 21.3353 16.4174 20.1453 16.4226 18.6756V6.06822H18.7232ZM13.6385 12.8426V12.1274C13.3731 12.0911 13.1055 12.073 12.8376 12.0731C9.6134 12.0731 6.99988 14.6853 6.99988 17.9073C6.99988 19.9274 8.02704 21.7077 9.5879 22.7549C8.55847 21.7031 7.92413 20.2635 7.92413 18.6756C7.92413 15.4946 10.4712 12.908 13.6385 12.8426Z" fill="#69C9D0"/>
</svg>
