<svg width="30" height="30" viewBox="0 0 30 30" fill="none" xmlns="http://www.w3.org/2000/svg">
<path d="M0.00012207 15.0901C0.000966918 18.6841 1.27583 22.16 3.59556 24.8929C5.9153 27.6259 9.12779 29.4367 12.6556 30V19.4519H8.85012V15.0901H12.6601V11.7698C12.576 10.9926 12.663 10.2064 12.9149 9.4669C13.1667 8.7274 13.5774 8.05277 14.1176 7.49094C14.6578 6.9291 15.3143 6.49384 16.0406 6.21606C16.7668 5.93828 17.5449 5.82481 18.3196 5.88369C19.4446 5.9018 20.5696 6.00292 21.6796 6.18554V9.89679H19.7836C19.4614 9.85432 19.1338 9.88526 18.825 9.98731C18.5162 10.0894 18.2342 10.2599 17.9998 10.4864C17.7653 10.7129 17.5845 10.9894 17.4706 11.2957C17.3566 11.602 17.3126 11.9301 17.3416 12.2557V15.0901H21.4981L20.8336 19.4534H17.3416V30C20.1731 29.5498 22.817 28.2926 24.9604 26.3775C27.1038 24.4623 28.6568 21.9692 29.4358 19.1935C30.2147 16.4178 30.1868 13.4756 29.3554 10.7153C28.524 7.95502 26.924 5.49224 24.7447 3.61852C22.5654 1.74481 19.8981 0.538633 17.0587 0.142809C14.2192 -0.253015 11.3265 0.178086 8.723 1.38507C6.1195 2.59206 3.91425 4.52438 2.36833 6.95326C0.822413 9.38214 0.000577125 12.2059 0.00012207 15.0901Z" fill="#295396"/>
</svg>
