<svg width="24" height="24" viewBox="0 0 24 24" fill="none" xmlns="http://www.w3.org/2000/svg">
<path d="M17.9927 2.70895L18.2378 2.27635L17.9927 2.70896C18.2332 2.84517 18.4344 3.04103 18.5772 3.27766C18.5772 3.2777 18.5772 3.27773 18.5772 3.27776L21.4211 8.01654L21.4217 8.0175C21.4729 8.10239 21.5 8.19963 21.5 8.29876C21.4961 9.19037 21.1676 10.0501 20.5759 10.7171L20.45 10.8591V11.0489V19.85C20.45 20.732 19.732 21.45 18.85 21.45H4.15C3.26799 21.45 2.55 20.732 2.55 19.85V11.0489V10.8591L2.42405 10.7171C1.83238 10.0501 1.5039 9.1904 1.5 8.29879C1.50002 8.19966 1.52708 8.1024 1.57829 8.01751L1.57887 8.01654L4.42332 3.27684L4.42347 3.27659C4.71006 2.7984 5.23707 2.5 5.7943 2.5H17.205C17.4811 2.50087 17.7524 2.57283 17.9927 2.70895ZM20.3792 8.62695L20.4011 8.455L20.312 8.30635L17.6345 3.8428L17.4888 3.6H17.2057H14.881H14.2711L14.3907 4.19808L15.0917 7.70198L15.0618 7.70795L15.1706 8.20525C15.1772 8.23552 15.1845 8.26251 15.1895 8.28074C15.1914 8.28737 15.1928 8.29272 15.1941 8.29722C15.1968 8.30693 15.1984 8.31277 15.2001 8.31932C15.2105 9.74475 16.3722 10.9 17.8 10.9L17.8007 10.9C18.4333 10.8991 19.0439 10.6679 19.5184 10.2496C19.993 9.83124 20.2989 9.25444 20.3792 8.62695ZM10.26 3.6H9.84995L9.76964 4.00206L8.91704 8.27031L8.90573 8.32689L8.90762 8.38457C8.95307 9.77661 10.093 10.9 11.5 10.9C12.907 10.9 14.0469 9.77661 14.0924 8.38457L14.0943 8.32683L14.0829 8.27019L13.2293 4.00194L13.1489 3.6H12.739H10.26ZM5.7943 3.6H5.51117L5.36553 3.8428L2.68803 8.30635L2.59885 8.455L2.62084 8.62695C2.70105 9.25444 3.00702 9.83124 3.48155 10.2496C3.95608 10.6679 4.5667 10.8991 5.19929 10.9H5.2C6.62765 10.9 7.7892 9.74506 7.79993 8.31991C7.80164 8.31339 7.80358 8.30658 7.80697 8.29468C7.80781 8.29171 7.80875 8.28842 7.80979 8.28475C7.81469 8.26749 7.82203 8.24142 7.82881 8.21249L7.94671 7.70944L7.90925 7.70195L8.60931 4.19796L8.72878 3.6H8.119H5.7943ZM8.9 19.85V20.35H9.4H13.6H14.1V19.85V16.7V16.2H13.6H9.4H8.9V16.7V19.85ZM15.2 19.85V20.35H15.7H18.85H19.35V19.85V12.3509V11.7052L18.7248 11.8668C18.4121 11.9477 18.1089 12 17.8 12H17.7997C17.2747 12.0003 16.7556 11.8885 16.2772 11.6721C15.7988 11.4557 15.3722 11.1397 15.0257 10.7452L14.6506 10.3181L14.2748 10.7446C13.596 11.5152 12.6029 12 11.5 12C10.3971 12 9.40403 11.5152 8.72517 10.7446L8.34942 10.3181L7.97432 10.7452C7.62784 11.1397 7.20115 11.4557 6.72276 11.6721C6.24438 11.8885 5.72531 12.0003 5.20026 12H5.2C4.89109 12 4.58794 11.9477 4.27517 11.8668L3.65 11.7052V12.3509V19.85V20.35H4.15H7.3H7.8V19.85V16.7C7.8 15.818 8.51799 15.1 9.4 15.1H13.6C14.482 15.1 15.2 15.818 15.2 16.7V19.85Z" fill="#292929" stroke="#C22026"/>
</svg>
