<svg width="28" height="32" viewBox="0 0 28 32" fill="none" xmlns="http://www.w3.org/2000/svg">
<rect width="16.7476" height="19.8449" rx="3" transform="matrix(0.862652 0.505798 -0.515964 0.85661 10.3057 5.92957)" fill="#DC3A35"/>
<path d="M20.7471 4.82398C21.8203 5.45321 24.4387 15.0337 23.3999 16.5618C22.3611 18.0899 8.02067 9.76824 9.01007 8.12556C9.99947 6.48287 19.674 4.19476 20.7471 4.82398Z" fill="#DC3A35"/>
<path d="M9.253 24.1623C9.07287 24.062 8.96014 23.9194 8.91482 23.7344C8.86487 23.5574 8.88842 23.3842 8.98544 23.2145L9.60226 22.1361L9.73227 22.5599C9.17655 22.2292 8.71459 21.8762 8.34638 21.5008C7.98636 21.1299 7.70338 20.7753 7.49747 20.437C7.40091 20.2661 7.36094 20.1001 7.37755 19.9389C7.39878 19.7697 7.45686 19.6209 7.55178 19.4927C7.6467 19.3645 7.76283 19.2747 7.90015 19.2234C8.05028 19.1685 8.19777 19.1654 8.34264 19.2141C8.49212 19.2547 8.62512 19.3714 8.74161 19.5641C8.89694 19.8209 9.12418 20.1125 9.42332 20.4389C9.73527 20.7616 10.1533 21.0689 10.6773 21.3607C11.0867 21.5886 11.446 21.7247 11.7552 21.7691C12.0645 21.8135 12.325 21.7828 12.5366 21.677C12.7565 21.5757 12.9288 21.416 13.0535 21.1979C13.1552 21.0202 13.202 20.8439 13.1941 20.6691C13.1907 20.4861 13.1226 20.2938 12.9898 20.092C12.8615 19.8821 12.6562 19.656 12.3738 19.4136L11.2314 18.4101C10.5787 17.8337 10.1767 17.2531 10.0254 16.6683C9.87415 16.0835 9.97408 15.4841 10.3252 14.8701C10.5978 14.3935 10.9591 14.0355 11.4091 13.7961C11.8637 13.5486 12.3686 13.4303 12.9237 13.4412C13.4788 13.452 14.0545 13.5968 14.6508 13.8755L14.3012 13.9205L14.8833 12.9027C14.9804 12.733 15.1185 12.6236 15.2979 12.5743C15.4818 12.5169 15.6638 12.5384 15.844 12.6387C16.0159 12.7344 16.1245 12.8748 16.1699 13.0598C16.228 13.2412 16.2085 13.4168 16.1115 13.5864L15.5293 14.6043L15.3823 14.2668C15.7298 14.4709 16.0753 14.7538 16.419 15.1156C16.7708 15.4819 17.0312 15.8665 17.2002 16.2694C17.2675 16.4348 17.2847 16.5934 17.2517 16.7455C17.2234 16.8894 17.1582 17.0129 17.0561 17.1158C16.9587 17.2107 16.8418 17.2734 16.7055 17.3041C16.5693 17.3347 16.4269 17.3194 16.2785 17.258C16.1429 17.1932 16.0168 17.0644 15.9003 16.8717C15.7414 16.6022 15.5377 16.345 15.2891 16.1001C15.0452 15.8471 14.7185 15.6067 14.3091 15.3788C13.7851 15.087 13.3046 14.9739 12.8677 15.0395C12.4436 15.1016 12.1253 15.3185 11.9127 15.6901C11.7556 15.9647 11.7186 16.237 11.8017 16.507C11.8895 16.7688 12.1226 17.069 12.5011 17.4075L13.6734 18.4437C14.3624 19.051 14.7849 19.643 14.9408 20.2197C15.1013 20.7883 15.0106 21.3716 14.6687 21.9694C14.4007 22.4379 14.0441 22.7878 13.5987 23.0191C13.158 23.2424 12.6664 23.3468 12.1241 23.3325C11.5946 23.3146 11.0394 23.1812 10.4585 22.9323L10.8374 22.8077L10.2136 23.8983C10.1166 24.068 9.97841 24.1774 9.79909 24.2267C9.61516 24.284 9.43313 24.2626 9.253 24.1623Z" fill="white"/>
<ellipse cx="18.38" cy="8.73284" rx="1.76277" ry="1.73919" fill="#FFF4F4"/>
<path fill-rule="evenodd" clip-rule="evenodd" d="M25.0138 4.89435C24.7622 3.28177 23.1659 2.19842 21.6091 2.3953C20.7654 2.50199 19.5601 3.30003 19.0854 4.53851C18.5669 5.89128 18.6944 7.3854 18.972 8.6017C19.064 9.00471 18.8075 9.40499 18.399 9.49576C17.9906 9.58652 17.5848 9.33341 17.4928 8.9304C17.1876 7.59344 16.9961 5.76012 17.6671 4.00936C18.3349 2.26721 20.0023 1.09029 21.4163 0.911477C23.7363 0.618094 26.1277 2.20132 26.5124 4.66674L26.5137 4.67475C26.6229 5.37456 27.012 7.8677 25.0297 9.92085C24.7409 10.22 24.2611 10.2315 23.9579 9.94654C23.6547 9.66161 23.6431 9.18815 23.9319 8.88904C25.3831 7.38598 25.1165 5.55246 25.0138 4.89435Z" fill="#E95056"/>
</svg>
