<svg width="16" height="17" viewBox="0 0 16 17" fill="none" xmlns="http://www.w3.org/2000/svg">
<path d="M8.00001 3.3846C10.9407 3.3846 13.3333 5.77727 13.3333 8.71794C13.3333 11.6586 10.9407 14.0513 8.00001 14.0513C5.05934 14.0513 2.66668 11.6586 2.66668 8.71794C2.66668 5.77727 5.05934 3.3846 8.00001 3.3846ZM8.00001 2.05127C4.31801 2.05127 1.33334 5.03594 1.33334 8.71794C1.33334 12.3999 4.31801 15.3846 8.00001 15.3846C11.682 15.3846 14.6667 12.3999 14.6667 8.71794C14.6667 5.03594 11.682 2.05127 8.00001 2.05127ZM10.5333 10.9846L8.66668 8.49594V5.3846H7.33334V8.93994L9.46668 11.7839L10.5333 10.9846Z" fill="#292929"/>
</svg>
