<svg width="34" height="34" viewBox="0 0 34 34" fill="none" xmlns="http://www.w3.org/2000/svg">
<path d="M15.8847 2.7252C16.3896 1.88349 17.6095 1.88349 18.1144 2.7252L22.0161 9.22969C22.1978 9.53269 22.4951 9.74865 22.8394 9.82787L30.2312 11.5286C31.1878 11.7487 31.5647 12.9088 30.9202 13.6491L25.9398 19.3699C25.7078 19.6363 25.5942 19.9858 25.6253 20.3377L26.292 27.8933C26.3783 28.8711 25.3914 29.5881 24.4882 29.2039L17.5084 26.235C17.1833 26.0967 16.8158 26.0967 16.4907 26.235L9.51091 29.2039C8.6077 29.5881 7.62083 28.8711 7.7071 27.8933L8.37381 20.3377C8.40486 19.9858 8.29132 19.6363 8.05932 19.3699L3.07887 13.6491C2.43438 12.9088 2.81133 11.7487 3.76787 11.5286L11.1597 9.82787C11.504 9.74865 11.8013 9.53269 11.983 9.22969L15.8847 2.7252Z" fill="#DC3A35"/>
<path d="M8.39783 2.33688C8.49924 2.08763 8.85217 2.08763 8.95358 2.33688L9.58545 3.88984C9.61593 3.96475 9.67536 4.02418 9.75027 4.05466L11.3032 4.68652C11.5525 4.78794 11.5525 5.14087 11.3032 5.24228L9.75027 5.87415C9.67536 5.90462 9.61593 5.96405 9.58545 6.03896L8.95358 7.59192C8.85217 7.84117 8.49924 7.84117 8.39783 7.59192L7.76596 6.03896C7.73548 5.96405 7.67605 5.90462 7.60114 5.87415L6.04819 5.24228C5.79894 5.14087 5.79894 4.78794 6.04819 4.68652L7.60114 4.05466C7.67605 4.02418 7.73548 3.96475 7.76596 3.88984L8.39783 2.33688Z" fill="#E95056"/>
<path d="M28.3134 22.9994C28.4148 22.7501 28.7678 22.7501 28.8692 22.9994L29.1041 23.5768C29.1346 23.6517 29.194 23.7111 29.2689 23.7416L29.8463 23.9765C30.0956 24.0779 30.0956 24.4308 29.8463 24.5323L29.2689 24.7672C29.194 24.7977 29.1346 24.8571 29.1041 24.932L28.8692 25.5094C28.7678 25.7586 28.4148 25.7586 28.3134 25.5094L28.0785 24.932C28.048 24.8571 27.9886 24.7977 27.9137 24.7672L27.3363 24.5323C27.087 24.4308 27.087 24.0779 27.3363 23.9765L27.9137 23.7416C27.9886 23.7111 28.048 23.6517 28.0785 23.5768L28.3134 22.9994Z" fill="#E95056"/>
<path d="M11.9391 20.4825C11.7336 20.4825 11.5634 20.4375 11.4286 20.3476C11.3001 20.2513 11.1942 20.1068 11.1107 19.9141L8.68327 14.5199C8.59336 14.3272 8.56768 14.157 8.60621 14.0093C8.64474 13.8552 8.72501 13.7364 8.84702 13.6529C8.96903 13.563 9.11673 13.5181 9.29012 13.5181C9.50846 13.5181 9.67543 13.5694 9.79102 13.6722C9.90661 13.7685 10.0029 13.913 10.08 14.1057L12.2088 19.0279H11.7272L13.856 14.096C13.9395 13.9034 14.039 13.7589 14.1546 13.6626C14.2702 13.5662 14.4307 13.5181 14.6362 13.5181C14.8096 13.5181 14.9509 13.563 15.0601 13.6529C15.1757 13.7364 15.2463 13.8552 15.272 14.0093C15.3041 14.157 15.2784 14.3272 15.1949 14.5199L12.7675 19.9141C12.6776 20.1068 12.5684 20.2513 12.44 20.3476C12.318 20.4375 12.151 20.4825 11.9391 20.4825Z" fill="white"/>
<path d="M17.4447 20.4825C17.2007 20.4825 17.0145 20.415 16.886 20.2802C16.7576 20.1453 16.6934 19.9559 16.6934 19.7118V14.2887C16.6934 14.0446 16.7576 13.8552 16.886 13.7204C17.0145 13.5855 17.2007 13.5181 17.4447 13.5181C17.6823 13.5181 17.8654 13.5855 17.9938 13.7204C18.1222 13.8552 18.1865 14.0446 18.1865 14.2887V19.7118C18.1865 19.9559 18.1222 20.1453 17.9938 20.2802C17.8718 20.415 17.6888 20.4825 17.4447 20.4825Z" fill="white"/>
<path d="M20.8824 20.4825C20.6384 20.4825 20.4521 20.415 20.3237 20.2802C20.1953 20.1453 20.131 19.9559 20.131 19.7118V14.3657C20.131 14.1153 20.1953 13.9258 20.3237 13.7974C20.4585 13.669 20.648 13.6048 20.892 13.6048H23.2327C23.9905 13.6048 24.5749 13.7974 24.9859 14.1827C25.3969 14.5616 25.6024 15.0914 25.6024 15.7721C25.6024 16.4528 25.3969 16.9858 24.9859 17.3711C24.5749 17.7564 23.9905 17.9491 23.2327 17.9491H21.6241V19.7118C21.6241 19.9559 21.5599 20.1453 21.4314 20.2802C21.3094 20.415 21.1264 20.4825 20.8824 20.4825ZM21.6241 16.7932H22.9823C23.3676 16.7932 23.6598 16.7065 23.8589 16.5331C24.0644 16.3597 24.1671 16.106 24.1671 15.7721C24.1671 15.4382 24.0644 15.1877 23.8589 15.0208C23.6598 14.8538 23.3676 14.7703 22.9823 14.7703H21.6241V16.7932Z" fill="white"/>
</svg>
